g Body_05.031
v -0.01897274 -1.517178E-09 0.009312375
v 2.941411E-05 -5.129964E-11 0.000314875
v 0.01860958 -1.461327E-09 0.008969561
v 0.02415387 -3.473131E-09 0.02131793
v -0.02544421 -3.53736E-09 0.02171216
v 0.02104034 -4.899581E-09 0.03007341
v 0.00017772 -4.901317E-09 0.03008407
v -0.02598454 -4.959947E-09 0.03044394
v -0.08200555 0.0004077446 0.1685821
v -0.002675426 0.0004077446 0.1684135
v 0.05631633 0.0004077442 0.1707366
v -0.1049865 0.0004077388 0.203964
v 0.08299389 0.0004077381 0.2081738
v -0.09412628 0.000407731 0.2522284
v 0.07844439 0.0004077314 0.2498053
v 0.07699019 0.0004077295 0.2609942
v -0.09345682 0.0004077305 0.2548035
v -0.09182645 0.0004077299 0.2585305
v -0.06353381 0.0004077201 0.3186814
v 0.07355641 0.0004077285 0.2673663
v 0.04211242 0.0004077196 0.3220153
v -0.005328462 0.0004077164 0.3412904
v 0.01860958 -1 0.008969398
v 2.941411E-05 -1 0.000314712
v -0.01897274 -1 0.009312212
v 0.02415387 -1 0.02131776
v -0.02544421 -1 0.021712
v 0.02104034 -1 0.03007325
v 0.00017772 -1 0.0300839
v -0.02598454 -1 0.03044377
v 0.05631633 -0.9995922 0.1707364
v -0.002675426 -0.9995922 0.1684133
v -0.08200555 -0.9995922 0.1685819
v -0.1049865 -0.9995922 0.2039639
v 0.08299389 -0.9995922 0.2081736
v -0.09412628 -0.9995922 0.2522283
v 0.07844439 -0.9995922 0.2498052
v 0.07699019 -0.9995922 0.260994
v -0.09345682 -0.9995922 0.2548034
v -0.09182645 -0.9995922 0.2585304
v -0.06353381 -0.9995922 0.3186813
v 0.07355641 -0.9995922 0.2673661
v 0.04211242 -0.9995922 0.3220151
v -0.005328462 -0.9995922 0.3412902
v -0.1049865 0.0004077388 0.203964
v -0.08200555 -0.9995922 0.1685819
v -0.08200555 0.0004077446 0.1685821
v -0.1049865 -0.9995922 0.2039639
v -0.09412628 0.000407731 0.2522284
v -0.09412628 -0.9995922 0.2522283
v -0.09345682 0.0004077305 0.2548035
v -0.09345682 -0.9995922 0.2548034
v -0.09182645 0.0004077299 0.2585305
v -0.09182645 -0.9995922 0.2585304
v -0.06353381 0.0004077201 0.3186814
v -0.06353381 -0.9995922 0.3186813
v -0.005328462 0.0004077164 0.3412904
v -0.005328462 -0.9995922 0.3412902
v 0.04211242 0.0004077196 0.3220153
v 0.04211242 -0.9995922 0.3220151
v 0.07355641 0.0004077285 0.2673663
v 0.07355641 -0.9995922 0.2673661
v 0.07699019 0.0004077295 0.2609942
v 0.07699019 -0.9995922 0.260994
v 0.07844439 0.0004077314 0.2498053
v 0.07844439 -0.9995922 0.2498052
v 0.08299389 0.0004077381 0.2081738
v 0.08299389 -0.9995922 0.2081736
v 0.05631633 0.0004077442 0.1707366
v 0.05631633 -0.9995922 0.1707364
v -0.02598454 -4.959947E-09 0.03044394
v -0.02598454 -1 0.03044377
v -0.02544421 -1 0.021712
v -0.02544421 -3.53736E-09 0.02171216
v -0.01897274 -1 0.009312212
v -0.01897274 -1.517178E-09 0.009312375
v 2.941411E-05 -1 0.000314712
v 2.941411E-05 -5.129964E-11 0.000314875
v 0.01860958 -1 0.008969398
v 0.01860958 -1.461327E-09 0.008969561
v 0.02415387 -1 0.02131776
v 0.02415387 -3.473131E-09 0.02131793
v 0.02104034 -1 0.03007325
v 0.02104034 -4.899581E-09 0.03007341
v -0.002675426 -0.9995922 0.1684133
v -0.002675426 0.0004077446 0.1684135
v 0.00017772 -1 0.0300839
v 0.00017772 -4.901317E-09 0.03008407
vt 0.8507348 0.5638571
vt 0.8362179 0.5179193
vt 0.8220232 0.5621068
vt 0.8177877 0.6251529
vt 0.8556789 0.6271658
vt 0.8201663 0.6698551
vt 0.8361047 0.6699095
vt 0.8560917 0.6717469
vt 0.8431087 0.5123467
vt 0.805613 0.5121694
vt 0.7777304 0.5146141
vt 0.8539706 0.5495821
vt 0.7651212 0.5540124
vt 0.8488375 0.6003747
vt 0.7672715 0.5978246
vt 0.7679588 0.6095996
vt 0.8485211 0.6030846
vt 0.8477505 0.6070068
vt 0.8343779 0.6703086
vt 0.7695819 0.6163054
vt 0.7844439 0.673817
vt 0.806867 0.6941018
vt 0.8220232 0.5621068
vt 0.8362179 0.5179193
vt 0.8507348 0.5638571
vt 0.8177877 0.6251529
vt 0.8556789 0.6271658
vt 0.8201663 0.6698551
vt 0.8361047 0.6699095
vt 0.8560917 0.6717469
vt 0.7777304 0.5146141
vt 0.805613 0.5121694
vt 0.8431087 0.5123467
vt 0.8539706 0.5495821
vt 0.7651212 0.5540124
vt 0.8488375 0.6003747
vt 0.7672715 0.5978246
vt 0.7679588 0.6095996
vt 0.8485211 0.6030846
vt 0.8477505 0.6070068
vt 0.8343779 0.6703086
vt 0.7695819 0.6163054
vt 0.7844439 0.673817
vt 0.806867 0.6941018
vt 0.8539706 0.5495821
vt 0.8431087 0.5123467
vt 0.8431087 0.5123467
vt 0.8539706 0.5495821
vt 0.8488375 0.6003747
vt 0.8488375 0.6003747
vt 0.8485211 0.6030846
vt 0.8485211 0.6030846
vt 0.8477505 0.6070068
vt 0.8477505 0.6070068
vt 0.8343779 0.6703086
vt 0.8343779 0.6703086
vt 0.806867 0.6941018
vt 0.806867 0.6941018
vt 0.7844439 0.673817
vt 0.7844439 0.673817
vt 0.7695819 0.6163054
vt 0.7695819 0.6163054
vt 0.7679588 0.6095996
vt 0.7679588 0.6095996
vt 0.7672715 0.5978246
vt 0.7672715 0.5978246
vt 0.7651212 0.5540124
vt 0.7651212 0.5540124
vt 0.7777304 0.5146141
vt 0.7777304 0.5146141
vt 0.8560917 0.6717469
vt 0.8560917 0.6717469
vt 0.8556789 0.6271658
vt 0.8556789 0.6271658
vt 0.8507348 0.5638571
vt 0.8507348 0.5638571
vt 0.8362179 0.5179193
vt 0.8362179 0.5179193
vt 0.8220232 0.5621068
vt 0.8220232 0.5621068
vt 0.8177877 0.6251529
vt 0.8177877 0.6251529
vt 0.8201663 0.6698551
vt 0.8201663 0.6698551
vt 0.805613 0.5121694
vt 0.805613 0.5121694
vt 0.8361047 0.6699095
vt 0.8361047 0.6699095
vn 0 1 0
vn 0 1 0
vn 0 1 0
vn 0 1 0
vn 0 1 0
vn 0 1 0
vn 0 1 0
vn 0 1 0
vn 0 1 0
vn 0 1 0
vn 0 1 0
vn 0 1 0
vn 0 1 0
vn 0 1 0
vn 0 1 0
vn 0 1 0
vn 0 1 0
vn 0 1 0
vn 0 1 0
vn 0 1 0
vn 0 1 0
vn 0 1 0
vn 0 -1 0
vn 0 -1 0
vn 0 -1 0
vn 0 -1 0
vn 0 -1 0
vn 0 -1 0
vn 0 -1 0
vn 0 -1 0
vn 0 -1 0
vn 0 -1 0
vn 0 -1 0
vn 0 -1 0
vn 0 -1 0
vn 0 -1 0
vn 0 -1 0
vn 0 -1 0
vn 0 -1 0
vn 0 -1 0
vn 0 -1 0
vn 0 -1 0
vn 0 -1 0
vn 0 -1 0
vn -0.9843146 0 -0.1764226
vn -0.4780609 0 -0.8783267
vn -0.4780607 0 -0.8783268
vn -0.9843146 0 -0.1764224
vn -0.9718498 0 0.2356012
vn -0.9718498 0 0.2356012
vn -0.9449499 0 0.3272152
vn -0.9449499 0 0.3272152
vn -0.9106216 0 0.4132411
vn -0.9106216 0 0.4132411
vn -0.682237 0 0.7311311
vn -0.682237 0 0.7311311
vn 0.007713474 0 0.9999703
vn 0.007713474 0 0.9999703
vn 0.6573521 0 0.7535836
vn 0.6573521 0 0.7535836
vn 0.8736254 0 0.486599
vn 0.8736254 0 0.486599
vn 0.9517969 0 0.306729
vn 0.9517969 0 0.306729
vn 0.9929223 0 0.1187652
vn 0.9929223 0 0.1187652
vn 0.9676279 0 -0.2523812
vn 0.9676279 0 -0.2523811
vn 0.4754832 0 -0.8797248
vn 0.4754834 0 -0.8797247
vn -0.7238886 0 0.6899169
vn -0.7238886 0 0.6899168
vn -0.9633942 0 -0.268089
vn -0.9633942 0 -0.268089
vn -0.6932595 0 -0.720688
vn -0.6932595 0 -0.720688
vn -0.003152862 0 -0.9999951
vn -0.003152862 0 -0.9999951
vn 0.7120053 0 -0.7021741
vn 0.7120053 0 -0.7021741
vn 0.9991931 0 -0.04016419
vn 0.9991931 0 -0.04016412
vn 0.5768129 0 0.8168763
vn 0.5768129 0 0.8168763
vn 0.01861603 0 -0.9998267
vn 0.01861603 0 -0.9998267
vn 0.00713256 0 0.9999746
vn 0.00713256 0 0.9999746
g Body_05.031_0
f 3/3/3 2/2/2 1/1/1
f 1/1/1 4/4/4 3/3/3
f 1/1/1 5/5/5 4/4/4
f 5/5/5 6/6/6 4/4/4
f 5/5/5 7/7/7 6/6/6
f 5/5/5 8/8/8 7/7/7
f 11/11/11 10/10/10 9/9/9
f 9/9/9 12/12/12 11/11/11
f 12/12/12 13/13/13 11/11/11
f 12/12/12 14/14/14 13/13/13
f 14/14/14 15/15/15 13/13/13
f 14/14/14 16/16/16 15/15/15
f 14/14/14 17/17/17 16/16/16
f 17/17/17 18/18/18 16/16/16
f 18/18/18 19/19/19 16/16/16
f 19/19/19 20/20/20 16/16/16
f 19/19/19 21/21/21 20/20/20
f 19/19/19 22/22/22 21/21/21
f 25/25/25 24/24/24 23/23/23
f 23/23/23 26/26/26 25/25/25
f 26/26/26 27/27/27 25/25/25
f 26/26/26 28/28/28 27/27/27
f 28/28/28 29/29/29 27/27/27
f 29/29/29 30/30/30 27/27/27
f 33/33/33 32/32/32 31/31/31
f 31/31/31 34/34/34 33/33/33
f 31/31/31 35/35/35 34/34/34
f 35/35/35 36/36/36 34/34/34
f 35/35/35 37/37/37 36/36/36
f 37/37/37 38/38/38 36/36/36
f 38/38/38 39/39/39 36/36/36
f 38/38/38 40/40/40 39/39/39
f 38/38/38 41/41/41 40/40/40
f 38/38/38 42/42/42 41/41/41
f 42/42/42 43/43/43 41/41/41
f 43/43/43 44/44/44 41/41/41
f 47/47/47 46/46/46 45/45/45
f 46/46/46 48/48/48 45/45/45
f 45/45/45 48/48/48 49/49/49
f 48/48/48 50/50/50 49/49/49
f 49/49/49 50/50/50 51/51/51
f 50/50/50 52/52/52 51/51/51
f 51/51/51 52/52/52 53/53/53
f 52/52/52 54/54/54 53/53/53
f 53/53/53 54/54/54 55/55/55
f 54/54/54 56/56/56 55/55/55
f 55/55/55 56/56/56 57/57/57
f 56/56/56 58/58/58 57/57/57
f 57/57/57 58/58/58 59/59/59
f 58/58/58 60/60/60 59/59/59
f 59/59/59 60/60/60 61/61/61
f 60/60/60 62/62/62 61/61/61
f 61/61/61 62/62/62 63/63/63
f 62/62/62 64/64/64 63/63/63
f 63/63/63 64/64/64 65/65/65
f 64/64/64 66/66/66 65/65/65
f 65/65/65 66/66/66 67/67/67
f 66/66/66 68/68/68 67/67/67
f 67/67/67 68/68/68 69/69/69
f 68/68/68 70/70/70 69/69/69
f 73/73/73 72/72/72 71/71/71
f 74/74/74 73/73/73 71/71/71
f 75/75/75 73/73/73 74/74/74
f 76/76/76 75/75/75 74/74/74
f 77/77/77 75/75/75 76/76/76
f 78/78/78 77/77/77 76/76/76
f 79/79/79 77/77/77 78/78/78
f 80/80/80 79/79/79 78/78/78
f 81/81/81 79/79/79 80/80/80
f 82/82/82 81/81/81 80/80/80
f 83/83/83 81/81/81 82/82/82
f 84/84/84 83/83/83 82/82/82
g Body_05.031_1
f 85/85/85 46/46/46 47/47/47
f 86/86/86 85/85/85 47/47/47
f 70/70/70 85/85/85 86/86/86
f 69/69/69 70/70/70 86/86/86
f 87/87/87 83/83/83 84/84/84
f 88/88/88 87/87/87 84/84/84
f 72/72/72 87/87/87 88/88/88
f 71/71/71 72/72/72 88/88/88
