g Body_05.033
v -0.01897274 -1.517189E-09 0.009312443
v 2.941411E-05 -5.131071E-11 0.0003149429
v 0.01860958 -1.461338E-09 0.008969629
v 0.02415387 -3.473142E-09 0.02131799
v -0.02544421 -3.537372E-09 0.02171223
v 0.02104034 -4.899592E-09 0.03007348
v 0.00017772 -4.901328E-09 0.03008414
v -0.02598454 -4.959958E-09 0.03044401
v -0.08200555 0.0004077446 0.1685821
v -0.002675426 0.0004077446 0.1684136
v 0.05631633 0.0004077442 0.1707366
v -0.1049865 0.0004077388 0.2039641
v 0.08299389 0.0004077381 0.2081738
v -0.09412628 0.000407731 0.2522285
v 0.07844439 0.0004077314 0.2498054
v 0.07699019 0.0004077295 0.2609942
v -0.09345682 0.0004077305 0.2548036
v -0.09182645 0.0004077299 0.2585306
v -0.06353381 0.0004077201 0.3186815
v 0.07355641 0.0004077285 0.2673663
v 0.04211242 0.0004077196 0.3220154
v -0.005328462 0.0004077164 0.3412905
v 0.05631633 0.0004077442 0.1707366
v 0.05631633 -0.9995922 0.1707364
v 0.08299389 -0.9995922 0.2081737
v 0.08299389 0.0004077381 0.2081738
v 0.07844439 -0.9995922 0.2498052
v 0.07844439 0.0004077314 0.2498054
v 0.07699019 -0.9995922 0.2609941
v 0.07699019 0.0004077295 0.2609942
v 0.07355641 -0.9995922 0.2673662
v 0.07355641 0.0004077285 0.2673663
v 0.04211242 -0.9995922 0.3220152
v 0.04211242 0.0004077196 0.3220154
v -0.005328462 -0.9995922 0.3412903
v -0.005328462 0.0004077164 0.3412905
v 2.941411E-05 -5.131071E-11 0.0003149429
v 2.941411E-05 -1 0.00031478
v 0.01860958 -1 0.008969466
v 0.01860958 -1.461338E-09 0.008969629
v 0.02415387 -1 0.02131783
v 0.02415387 -3.473142E-09 0.02131799
v 0.02104034 -1 0.03007332
v 0.02104034 -4.899592E-09 0.03007348
v -0.1049865 0.0004077388 0.2039641
v -0.08200555 -0.9995922 0.1685819
v -0.08200555 0.0004077446 0.1685821
v -0.1049865 -0.9995922 0.2039639
v -0.09412628 0.000407731 0.2522285
v -0.09412628 -0.9995922 0.2522283
v -0.09345682 0.0004077305 0.2548036
v -0.09345682 -0.9995922 0.2548034
v -0.09182645 0.0004077299 0.2585306
v -0.09182645 -0.9995922 0.2585304
v -0.06353381 0.0004077201 0.3186815
v -0.06353381 -0.9995922 0.3186814
v -0.005328462 0.0004077164 0.3412905
v -0.005328462 -0.9995922 0.3412903
v -0.02598454 -4.959958E-09 0.03044401
v -0.02598454 -1 0.03044384
v -0.02544421 -1 0.02171207
v -0.02544421 -3.537372E-09 0.02171223
v -0.01897274 -1 0.00931228
v -0.01897274 -1.517189E-09 0.009312443
v 2.941411E-05 -1 0.00031478
v 2.941411E-05 -5.131071E-11 0.0003149429
v 0.01860958 -1 0.008969466
v 2.941411E-05 -1 0.00031478
v -0.01897274 -1 0.00931228
v 0.02415387 -1 0.02131783
v -0.02544421 -1 0.02171207
v 0.02104034 -1 0.03007332
v 0.00017772 -1 0.03008397
v -0.02598454 -1 0.03044384
v 0.05631633 -0.9995922 0.1707364
v -0.002675426 -0.9995922 0.1684134
v -0.08200555 -0.9995922 0.1685819
v -0.1049865 -0.9995922 0.2039639
v 0.08299389 -0.9995922 0.2081737
v -0.09412628 -0.9995922 0.2522283
v 0.07844439 -0.9995922 0.2498052
v 0.07699019 -0.9995922 0.2609941
v -0.09345682 -0.9995922 0.2548034
v -0.09182645 -0.9995922 0.2585304
v -0.06353381 -0.9995922 0.3186814
v 0.07355641 -0.9995922 0.2673662
v 0.04211242 -0.9995922 0.3220152
v -0.005328462 -0.9995922 0.3412903
v 0.00017772 -1 0.03008397
v 0.00017772 -4.901328E-09 0.03008414
v -0.02598454 -1 0.03044384
v -0.02598454 -4.959958E-09 0.03044401
v -0.002675426 -0.9995922 0.1684134
v -0.002675426 0.0004077446 0.1684136
v -0.002675426 0.0004077446 0.1684136
v -0.002675426 -0.9995922 0.1684134
vt 0.5403926 0.9886591
vt 0.5491687 0.9886591
vt 0.5407269 0.9886591
vt 0.5286831 0.9886591
vt 0.528298 0.9886591
vt 0.520143 0.9886591
vt 0.520133 0.9886591
vt 0.5197818 0.9886591
vt 0.3850465 0.9890569
vt 0.3852111 0.9890569
vt 0.3829451 0.9890567
vt 0.3505362 0.9890567
vt 0.3464304 0.9890567
vt 0.3034606 0.9890567
vt 0.3058241 0.9890567
vt 0.2949108 0.9890567
vt 0.300949 0.9890567
vt 0.297314 0.9890567
vt 0.2386444 0.9890567
vt 0.2886955 0.9890567
vt 0.2353933 0.9890567
vt 0.2165928 0.9890567
vt 0.3829451 0.9890567
vt 0.3829451 0.01369108
vt 0.3464304 0.01369108
vt 0.3464304 0.9890567
vt 0.3058241 0.01369108
vt 0.3058241 0.9890567
vt 0.2949113 0.01369108
vt 0.2949108 0.9890567
vt 0.2886955 0.01369108
vt 0.2886955 0.9890567
vt 0.2353933 0.01369108
vt 0.2353933 0.9890567
vt 0.2165928 0.01369108
vt 0.2165928 0.9890567
vt 0.5491687 0.9886591
vt 0.5491687 0.01329349
vt 0.5407271 0.01329349
vt 0.5407269 0.9886591
vt 0.5286831 0.01329349
vt 0.5286831 0.9886591
vt 0.5201436 0.01329349
vt 0.520143 0.9886591
vt 0.3505362 0.9890567
vt 0.3850465 0.01369108
vt 0.3850465 0.9890569
vt 0.3505362 0.01369108
vt 0.3034606 0.9890567
vt 0.3034611 0.01369108
vt 0.300949 0.9890567
vt 0.300949 0.01369108
vt 0.297314 0.9890567
vt 0.297314 0.01369108
vt 0.2386444 0.9890567
vt 0.2386449 0.01369108
vt 0.2165928 0.9890567
vt 0.2165928 0.01369108
vt 0.5197818 0.9886591
vt 0.5197818 0.01329349
vt 0.528298 0.01329349
vt 0.528298 0.9886591
vt 0.5403926 0.01329349
vt 0.5403926 0.9886591
vt 0.5491687 0.01329349
vt 0.5491687 0.9886591
vt 0.5407271 0.01329349
vt 0.5491687 0.01329349
vt 0.5403926 0.01329349
vt 0.5286831 0.01329349
vt 0.528298 0.01329349
vt 0.5201436 0.01329349
vt 0.520133 0.01329349
vt 0.5197818 0.01329349
vt 0.3829451 0.01369108
vt 0.3852111 0.01369108
vt 0.3850465 0.01369108
vt 0.3505362 0.01369108
vt 0.3464304 0.01369108
vt 0.3034611 0.01369108
vt 0.3058241 0.01369108
vt 0.2949113 0.01369108
vt 0.300949 0.01369108
vt 0.297314 0.01369108
vt 0.2386449 0.01369108
vt 0.2886955 0.01369108
vt 0.2353933 0.01369108
vt 0.2165928 0.01369108
vt 0.520133 0.01329349
vt 0.520133 0.9886591
vt 0.5197818 0.01329349
vt 0.5197818 0.9886591
vt 0.3852111 0.01369108
vt 0.3852111 0.9890569
vt 0.3852111 0.9890569
vt 0.3852111 0.01369108
vn 0 1 0
vn 0 1 0
vn 0 1 0
vn 0 1 0
vn 0 1 0
vn 0 1 0
vn 0 1 0
vn 0 1 0
vn 0 1 0
vn 0 1 0
vn 0 1 0
vn 0 1 0
vn 0 1 0
vn 0 1 0
vn 0 1 0
vn 0 1 0
vn 0 1 0
vn 0 1 0
vn 0 1 0
vn 0 1 0
vn 0 1 0
vn 0 1 0
vn 0.4754832 0 -0.8797248
vn 0.4754834 0 -0.8797247
vn 0.9676279 0 -0.2523811
vn 0.9676279 0 -0.2523812
vn 0.9929223 0 0.1187652
vn 0.9929223 0 0.1187652
vn 0.9517969 0 0.306729
vn 0.9517969 0 0.306729
vn 0.8736255 0 0.4865989
vn 0.8736255 0 0.4865989
vn 0.6573522 0 0.7535835
vn 0.6573521 0 0.7535835
vn 0.00771325 0 0.9999703
vn 0.00771325 0 0.9999703
vn -0.003152862 0 -0.9999951
vn -0.003152862 0 -0.9999951
vn 0.7120053 0 -0.7021741
vn 0.7120053 0 -0.702174
vn 0.9991931 0 -0.04016422
vn 0.9991931 0 -0.04016418
vn 0.5768129 0 0.8168763
vn 0.5768129 0 0.8168763
vn -0.9843146 0 -0.1764226
vn -0.4780609 0 -0.8783267
vn -0.4780607 0 -0.8783268
vn -0.9843146 0 -0.1764224
vn -0.9718498 0 0.2356012
vn -0.9718498 0 0.2356012
vn -0.9449499 0 0.3272152
vn -0.9449499 0 0.3272152
vn -0.9106216 0 0.4132411
vn -0.9106216 0 0.4132411
vn -0.6822372 0 0.731131
vn -0.6822371 0 0.7311308
vn 0.00771325 0 0.9999703
vn 0.00771325 0 0.9999703
vn -0.7238886 0 0.6899169
vn -0.7238886 0 0.6899168
vn -0.9633942 0 -0.268089
vn -0.9633942 0 -0.268089
vn -0.6932595 0 -0.720688
vn -0.6932595 0 -0.720688
vn -0.003152862 0 -0.9999951
vn -0.003152862 0 -0.9999951
vn 0 -1 0
vn 0 -1 0
vn 0 -1 0
vn 0 -1 0
vn 0 -1 0
vn 0 -1 0
vn 0 -1 0
vn 0 -1 0
vn 0 -1 0
vn 0 -1 0
vn 0 -1 0
vn 0 -1 0
vn 0 -1 0
vn 0 -1 0
vn 0 -1 0
vn 0 -1 0
vn 0 -1 0
vn 0 -1 0
vn 0 -1 0
vn 0 -1 0
vn 0 -1 0
vn 0 -1 0
vn 0.007132514 0 0.9999746
vn 0.007132514 0 0.9999746
vn -0.7238886 0 0.6899168
vn -0.7238886 0 0.6899169
vn 0.01861603 0 -0.9998267
vn 0.01861603 0 -0.9998267
vn 0.01861603 0 -0.9998267
vn 0.01861603 0 -0.9998267
g Body_05.033_0
f 3/3/3 2/2/2 1/1/1
f 1/1/1 4/4/4 3/3/3
f 1/1/1 5/5/5 4/4/4
f 5/5/5 6/6/6 4/4/4
f 5/5/5 7/7/7 6/6/6
f 5/5/5 8/8/8 7/7/7
f 11/11/11 10/10/10 9/9/9
f 9/9/9 12/12/12 11/11/11
f 12/12/12 13/13/13 11/11/11
f 12/12/12 14/14/14 13/13/13
f 14/14/14 15/15/15 13/13/13
f 14/14/14 16/16/16 15/15/15
f 14/14/14 17/17/17 16/16/16
f 17/17/17 18/18/18 16/16/16
f 18/18/18 19/19/19 16/16/16
f 19/19/19 20/20/20 16/16/16
f 19/19/19 21/21/21 20/20/20
f 19/19/19 22/22/22 21/21/21
f 25/25/25 24/24/24 23/23/23
f 26/26/26 25/25/25 23/23/23
f 27/27/27 25/25/25 26/26/26
f 28/28/28 27/27/27 26/26/26
f 29/29/29 27/27/27 28/28/28
f 30/30/30 29/29/29 28/28/28
f 31/31/31 29/29/29 30/30/30
f 32/32/32 31/31/31 30/30/30
f 33/33/33 31/31/31 32/32/32
f 34/34/34 33/33/33 32/32/32
f 35/35/35 33/33/33 34/34/34
f 36/36/36 35/35/35 34/34/34
f 39/39/39 38/38/38 37/37/37
f 40/40/40 39/39/39 37/37/37
f 41/41/41 39/39/39 40/40/40
f 42/42/42 41/41/41 40/40/40
f 43/43/43 41/41/41 42/42/42
f 44/44/44 43/43/43 42/42/42
f 47/47/47 46/46/46 45/45/45
f 46/46/46 48/48/48 45/45/45
f 45/45/45 48/48/48 49/49/49
f 48/48/48 50/50/50 49/49/49
f 49/49/49 50/50/50 51/51/51
f 50/50/50 52/52/52 51/51/51
f 51/51/51 52/52/52 53/53/53
f 52/52/52 54/54/54 53/53/53
f 53/53/53 54/54/54 55/55/55
f 54/54/54 56/56/56 55/55/55
f 55/55/55 56/56/56 57/57/57
f 56/56/56 58/58/58 57/57/57
f 61/61/61 60/60/60 59/59/59
f 62/62/62 61/61/61 59/59/59
f 63/63/63 61/61/61 62/62/62
f 64/64/64 63/63/63 62/62/62
f 65/65/65 63/63/63 64/64/64
f 66/66/66 65/65/65 64/64/64
g Body_05.033_1
f 69/69/69 68/68/68 67/67/67
f 67/67/67 70/70/70 69/69/69
f 70/70/70 71/71/71 69/69/69
f 70/70/70 72/72/72 71/71/71
f 72/72/72 73/73/73 71/71/71
f 73/73/73 74/74/74 71/71/71
f 77/77/77 76/76/76 75/75/75
f 75/75/75 78/78/78 77/77/77
f 75/75/75 79/79/79 78/78/78
f 79/79/79 80/80/80 78/78/78
f 79/79/79 81/81/81 80/80/80
f 81/81/81 82/82/82 80/80/80
f 82/82/82 83/83/83 80/80/80
f 82/82/82 84/84/84 83/83/83
f 82/82/82 85/85/85 84/84/84
f 82/82/82 86/86/86 85/85/85
f 86/86/86 87/87/87 85/85/85
f 87/87/87 88/88/88 85/85/85
f 89/89/89 43/43/43 44/44/44
f 90/90/90 89/89/89 44/44/44
f 91/91/91 89/89/89 90/90/90
f 92/92/92 91/91/91 90/90/90
f 93/93/93 46/46/46 47/47/47
f 94/94/94 93/93/93 47/47/47
f 24/24/24 96/96/96 95/95/95
f 23/23/23 24/24/24 95/95/95
