g Cube.044
v 2.750001 -19.95549 3.000003
v 2.75 -19.95549 -6.576452E-07
v -2.75 -19.95549 1.134482E-06
v -2.749999 -19.95549 3.000005
v -2.749999 -19.95549 3.000005
v -2.75 -19.95549 1.134482E-06
v -2.75 0 1.134482E-06
v -2.749999 0 3.000005
v 2.75 -19.95549 -6.576452E-07
v 2.750001 -19.95549 3.000003
v 2.750001 0 3.000003
v 2.75 0 -6.576452E-07
v 2.750001 0 3.000003
v -2.749999 0 3.000005
v -2.75 0 1.134482E-06
v 2.75 0 -6.576452E-07
v -2.75 -19.95549 1.134482E-06
v 2.75 -19.95549 -6.576452E-07
v 2.75 0 -6.576452E-07
v -2.75 0 1.134482E-06
v 2.750001 -19.95549 3.000003
v -2.749999 -19.95549 3.000005
v -2.749999 0 3.000005
v 2.750001 0 3.000003
vt 0.1706082 0.7183463
vt 0.1706082 0.396912
vt 0.1706082 0.396912
vt 0.1706082 0.7183463
vt 0.1706082 0.7183463
vt 0.1706082 0.396912
vt 0.1645572 0.396912
vt 0.1645572 0.7183463
vt 0.1706082 0.396912
vt 0.1706082 0.7183463
vt 0.1645572 0.7183463
vt 0.1645572 0.396912
vt 0.1543419 0.7183463
vt 0.1543419 0.7183463
vt 0.1543419 0.396912
vt 0.1543419 0.396912
vt 0.1706082 0.396912
vt 0.1706082 0.396912
vt 0.1645572 0.396912
vt 0.1647576 0.396912
vt 0.1706082 0.7183463
vt 0.1706082 0.7183463
vt 0.1645572 0.7183463
vt 0.1647576 0.7183463
vn 0 -1 0
vn 0 -1 0
vn 0 -1 0
vn 0 -1 0
vn -1 0 0
vn -1 0 0
vn -1 0 0
vn -1 0 0
vn 1 0 0
vn 1 0 0
vn 1 0 0
vn 1 0 0
vn 0 1 0
vn 0 1 0
vn 0 1 0
vn 0 1 0
vn 0 0 -1
vn 0 0 -1
vn 0 0 -1
vn 0 0 -1
vn 0 0 1
vn 0 0 1
vn 0 0 1
vn 0 0 1
g Cube.044_0
f 3/3/3 2/2/2 1/1/1
f 4/4/4 3/3/3 1/1/1
f 7/7/7 6/6/6 5/5/5
f 8/8/8 7/7/7 5/5/5
f 11/11/11 10/10/10 9/9/9
f 12/12/12 11/11/11 9/9/9
f 15/15/15 14/14/14 13/13/13
f 16/16/16 15/15/15 13/13/13
f 19/19/19 18/18/18 17/17/17
f 20/20/20 19/19/19 17/17/17
f 23/23/23 22/22/22 21/21/21
f 24/24/24 23/23/23 21/21/21
