g Cylinder
v 2.980232E-07 -1.629206E-07 0.9999995
v -0.09832197 -0.03633833 2.611714E-08
v 0 0 0
v -0.09832162 -0.03633848 0.9999995
v -0.150638 -0.1283502 8.777792E-08
v -0.1506377 -0.1283504 0.9999996
v -0.1324689 -0.2329823 6.481095E-08
v -0.1324685 -0.2329824 0.9999995
v -0.05231601 -0.301276 8.717198E-08
v -0.05231565 -0.3012761 0.9999995
v 0.05231607 -0.301276 5.307854E-08
v 0.05231637 -0.3012761 0.9999995
v 0.1324689 -0.2329822 -2.151669E-08
v 0.1324692 -0.2329824 0.9999994
v 0.150638 -0.1283502 -1.039032E-08
v 0.1506383 -0.1283504 0.9999995
v 0.09832203 -0.03633835 -3.795756E-08
v 0.09832233 -0.0363385 0.9999993
v 0 0 0
v 2.980232E-07 -1.629206E-07 0.9999995
v 0.1324689 -0.2329822 -2.151669E-08
v 0.150638 -0.1283502 -1.039032E-08
v 0.09832203 -0.03633835 -3.795756E-08
v 0.05231607 -0.301276 5.307854E-08
v 0 0 0
v -0.05231601 -0.301276 8.717198E-08
v -0.09832197 -0.03633833 2.611714E-08
v -0.1324689 -0.2329823 6.481095E-08
v -0.150638 -0.1283502 8.777792E-08
v 0.09832233 -0.0363385 0.9999993
v 0.1506383 -0.1283504 0.9999995
v 0.1324692 -0.2329824 0.9999994
v 0.05231637 -0.3012761 0.9999995
v 2.980232E-07 -1.629206E-07 0.9999995
v -0.05231565 -0.3012761 0.9999995
v -0.09832162 -0.03633848 0.9999995
v -0.1324685 -0.2329824 0.9999995
v -0.1506377 -0.1283504 0.9999996
vt 1 0.5
vt 0.8888889 1
vt 1 1
vt 0.8888889 0.5
vt 0.7777778 1
vt 0.7777778 0.5
vt 0.6666667 1
vt 0.6666667 0.5
vt 0.5555556 1
vt 0.5555556 0.5
vt 0.4444445 1
vt 0.4444445 0.5
vt 0.3333334 1
vt 0.3333334 0.5
vt 0.2222223 1
vt 0.2222223 0.5
vt 0.1111112 1
vt 0.1111112 0.5
vt 4.470348E-08 1
vt 4.470348E-08 0.5
vt 0.04215389 0.13
vt 0.01364616 0.2916756
vt 0.09573095 0.4338506
vt 0.1679151 0.02447379
vt 0.25 0.49
vt 0.3320848 0.02447376
vt 0.404269 0.4338506
vt 0.4578461 0.13
vt 0.4863539 0.2916755
vt 0.595731 0.4338506
vt 0.5136461 0.2916756
vt 0.5421539 0.13
vt 0.6679151 0.02447379
vt 0.75 0.49
vt 0.8320848 0.02447376
vt 0.904269 0.4338506
vt 0.9578461 0.13
vt 0.9863539 0.2916755
vn 0 1 0
vn -0.6472016 0.762319 0
vn 0 1 0
vn -0.6472017 0.7623188 0
vn -0.9851534 0.1716764 0
vn -0.9851534 0.1716763 0
vn -0.8685509 -0.4956 0
vn -0.8685508 -0.4956 0
vn -0.3455639 -0.9383953 0
vn -0.3455637 -0.9383954 0
vn 0.3455642 -0.9383951 0
vn 0.345564 -0.9383951 0
vn 0.8685511 -0.4955997 0
vn 0.868551 -0.4955998 0
vn 0.9851534 0.1716762 0
vn 0.9851534 0.171676 0
vn 0.6472017 0.7623188 0
vn 0.6472018 0.7623188 0
vn 0 1 0
vn 0 1 0
vn 0 0 -1
vn 0 0 -1
vn 0 0 -1
vn 0 0 -1
vn 0 0 -1
vn 0 0 -1
vn 0 0 -1
vn 0 0 -1
vn 0 0 -1
vn 0 0 1
vn 0 0 1
vn 0 0 1
vn 0 0 1
vn 0 0 1
vn 0 0 1
vn 0 0 1
vn 0 0 1
vn 0 0 1
g Cylinder_0
f 3/3/3 2/2/2 1/1/1
f 2/2/2 4/4/4 1/1/1
f 2/2/2 5/5/5 4/4/4
f 5/5/5 6/6/6 4/4/4
f 5/5/5 7/7/7 6/6/6
f 7/7/7 8/8/8 6/6/6
f 7/7/7 9/9/9 8/8/8
f 9/9/9 10/10/10 8/8/8
f 9/9/9 11/11/11 10/10/10
f 11/11/11 12/12/12 10/10/10
f 11/11/11 13/13/13 12/12/12
f 13/13/13 14/14/14 12/12/12
f 13/13/13 15/15/15 14/14/14
f 15/15/15 16/16/16 14/14/14
f 15/15/15 17/17/17 16/16/16
f 17/17/17 18/18/18 16/16/16
f 17/17/17 19/19/19 18/18/18
f 19/19/19 20/20/20 18/18/18
f 23/23/23 22/22/22 21/21/21
f 21/21/21 24/24/24 23/23/23
f 24/24/24 25/25/25 23/23/23
f 24/24/24 26/26/26 25/25/25
f 26/26/26 27/27/27 25/25/25
f 26/26/26 28/28/28 27/27/27
f 28/28/28 29/29/29 27/27/27
f 32/32/32 31/31/31 30/30/30
f 30/30/30 33/33/33 32/32/32
f 30/30/30 34/34/34 33/33/33
f 34/34/34 35/35/35 33/33/33
f 34/34/34 36/36/36 35/35/35
f 36/36/36 37/37/37 35/35/35
f 36/36/36 38/38/38 37/37/37
