g Cylinder.005
v 0.350473 2.50376 -0.6393642
v 0.07912096 2.50376 -0.7248157
v -0.204276 2.50376 -0.6999209
v -0.4565743 2.50376 -0.5684695
v 0.5684685 2.50376 -0.4565754
v -0.6393633 2.50376 -0.3504738
v 0.6999199 2.50376 -0.2042773
v -0.7248148 2.50376 -0.07912175
v 0.7248149 2.50376 0.07912014
v -0.6999199 2.50376 0.2042757
v 0.6393633 2.50376 0.350472
v -0.5684683 2.50376 0.4565739
v 0.4565746 2.50376 0.5684676
v -0.3504726 2.50376 0.6393626
v 0.2042766 2.50376 0.699919
v -0.07912073 2.50376 0.7248141
v 0.6393633 2.50376 0.350472
v 0.7248149 3.17277 0.07912014
v 0.7248149 2.50376 0.07912014
v 0.6393633 3.17277 0.350472
v 0.4565746 2.50376 0.5684676
v 1.227453 4.953819 0.1339882
v 0.4565746 3.17277 0.5684676
v 0.2042766 2.50376 0.699919
v 1.082743 4.953819 0.5935147
v 2.758523 289.4399 0.3011203
v 2.433309 289.4399 1.33384
v 0.7731956 4.953819 0.9626838
v 1.737646 289.4399 2.163495
v 0.2042766 3.17277 0.699919
v -0.07912073 2.50376 0.7248141
v 0.3459363 4.953819 1.185293
v 0.7774416 289.4399 2.663777
v -0.07912072 3.17277 0.7248141
v -0.3504726 2.50376 0.6393626
v -0.1339888 4.953819 1.227452
v -0.3011208 289.4399 2.758523
v -0.3504726 3.17277 0.6393626
v -0.5684683 2.50376 0.4565739
v -0.5935153 4.953819 1.082742
v -1.333841 289.4399 2.433309
v -0.5684683 3.17277 0.4565739
v -0.6999199 2.50376 0.2042757
v -0.9626846 4.953819 0.7731951
v -2.163496 289.4399 1.737646
v -0.6999199 3.17277 0.2042757
v -0.7248148 2.50376 -0.07912175
v -0.7248148 3.17277 -0.07912175
v -1.185294 4.953819 0.3459355
v -2.663778 289.4399 0.7774414
v -1.227453 4.953819 -0.1339898
v -2.758524 289.4399 -0.3011217
v -0.6393633 2.50376 -0.3504738
v -0.7248148 3.17277 -0.07912175
v -0.7248148 2.50376 -0.07912175
v -0.6393633 3.17277 -0.3504738
v -0.4565743 2.50376 -0.5684695
v -1.227453 4.953819 -0.1339898
v -0.4565743 3.17277 -0.5684695
v -0.204276 2.50376 -0.6999209
v -1.082743 4.953819 -0.5935166
v -2.758524 289.4399 -0.3011217
v -2.43331 289.4399 -1.333842
v -0.7731954 4.953819 -0.9626858
v -1.737646 289.4399 -2.163497
v -0.204276 3.17277 -0.6999209
v 0.07912096 2.50376 -0.7248157
v -0.3459355 4.953819 -1.185295
v -0.7774408 289.4399 -2.663779
v 0.07912098 3.17277 -0.7248157
v 0.350473 2.50376 -0.6393642
v 0.1339889 4.953819 -1.227454
v 0.3011204 289.4399 -2.758525
v 0.350473 3.17277 -0.6393642
v 0.5684685 2.50376 -0.4565754
v 0.5935155 4.953819 -1.082744
v 1.333841 289.4399 -2.433311
v 0.5684685 3.17277 -0.4565754
v 0.6999199 2.50376 -0.2042773
v 0.9626847 4.953819 -0.7731965
v 2.163495 289.4399 -1.737647
v 0.6999199 3.17277 -0.2042773
v 0.7248149 2.50376 0.07912014
v 0.7248149 3.17277 0.07912014
v 1.185294 4.953819 -0.345937
v 2.663777 289.4399 -0.7774427
v 1.227453 4.953819 0.1339882
v 2.758523 289.4399 0.3011203
v -0.7774408 289.4399 -2.663779
v 0.3011204 289.4399 -2.758525
v 1.333841 289.4399 -2.433311
v -1.737646 289.4399 -2.163497
v 2.163495 289.4399 -1.737647
v -2.43331 289.4399 -1.333842
v 2.663777 289.4399 -0.7774427
v -2.758524 289.4399 -0.3011217
v -2.43331 289.4399 -1.333842
v 2.758523 289.4399 0.3011203
v -2.663778 289.4399 0.7774414
v 2.433309 289.4399 1.33384
v 2.433309 289.4399 1.33384
v -2.163496 289.4399 1.737646
v 1.737646 289.4399 2.163495
v -1.333841 289.4399 2.433309
v 0.7774416 289.4399 2.663777
v -0.3011208 289.4399 2.758523
vt 0.3644935 -0.830358
vt 0.3646531 -0.830358
vt 0.3648059 -0.830358
vt 0.3649286 -0.830358
vt 0.3643515 -0.830358
vt 0.3650026 -0.830358
vt 0.3642486 -0.830358
vt 0.3650166 -0.830358
vt 0.3642005 -0.830358
vt 0.3649685 -0.830358
vt 0.3642145 -0.830358
vt 0.3648656 -0.830358
vt 0.3642885 -0.830358
vt 0.3647236 -0.830358
vt 0.3644112 -0.830358
vt 0.364564 -0.830358
vt 0.3642145 -0.830358
vt 0.3642005 -0.8062543
vt 0.3642005 -0.830358
vt 0.3642145 -0.8062543
vt 0.3642885 -0.830358
vt 0.3639176 -0.7420849
vt 0.3642885 -0.8062543
vt 0.3644112 -0.830358
vt 0.3639413 -0.7420849
vt 0.3630556 3.029241
vt 0.363109 3.029241
vt 0.3640666 -0.7420849
vt 0.3633906 3.029241
vt 0.3644112 -0.8062543
vt 0.364564 -0.830358
vt 0.3642744 -0.7420849
vt 0.3638577 3.029241
vt 0.364564 -0.8062543
vt 0.3647236 -0.830358
vt 0.3645331 -0.7420849
vt 0.3644391 3.029241
vt 0.3647236 -0.8062543
vt 0.3648656 -0.830358
vt 0.3648033 -0.7420849
vt 0.3650462 3.029241
vt 0.3648656 -0.8062543
vt 0.3649685 -0.830358
vt 0.3650438 -0.7420849
vt 0.3655868 3.029241
vt 0.3649685 -0.8062543
vt 0.3650166 -0.830358
vt 0.3650166 -0.8062543
vt 0.3652181 -0.7420849
vt 0.3659784 3.029241
vt 0.3652996 -0.7420849
vt 0.3661615 3.029241
vt 0.3650026 -0.830358
vt 0.3650166 -0.8062543
vt 0.3650166 -0.830358
vt 0.3650026 -0.8062543
vt 0.3649286 -0.830358
vt 0.3652996 -0.7420849
vt 0.3649286 -0.8062543
vt 0.3648059 -0.830358
vt 0.3652758 -0.7420849
vt 0.3661615 3.029241
vt 0.3661081 3.029241
vt 0.3651505 -0.7420849
vt 0.3658265 3.029241
vt 0.3648059 -0.8062543
vt 0.3646531 -0.830358
vt 0.3649427 -0.7420849
vt 0.3653594 3.029241
vt 0.3646531 -0.8062543
vt 0.3644935 -0.830358
vt 0.364684 -0.7420849
vt 0.3647781 3.029241
vt 0.3644935 -0.8062543
vt 0.3643515 -0.830358
vt 0.3644138 -0.7420849
vt 0.3641709 3.029241
vt 0.3643515 -0.8062543
vt 0.3642486 -0.830358
vt 0.3641733 -0.7420849
vt 0.3636304 3.029241
vt 0.3642486 -0.8062543
vt 0.3642005 -0.830358
vt 0.3642005 -0.8062543
vt 0.363999 -0.7420849
vt 0.3632387 3.029241
vt 0.3639176 -0.7420849
vt 0.3630556 3.029241
vt 0.3653594 3.029241
vt 0.3647781 3.029241
vt 0.3641709 3.029241
vt 0.3658265 3.029241
vt 0.3636304 3.029241
vt 0.3661081 3.029241
vt 0.3632387 3.029241
vt 0.3661615 3.029241
vt 0.3661081 3.029241
vt 0.3630556 3.029241
vt 0.3659784 3.029241
vt 0.363109 3.029241
vt 0.363109 3.029241
vt 0.3655868 3.029241
vt 0.3633906 3.029241
vt 0.3650462 3.029241
vt 0.3638577 3.029241
vt 0.3644391 3.029241
vn 0 -1 0
vn 0 -1 0
vn 0 -1 0
vn 0 -1 0
vn 0 -1 0
vn 0 -1 0
vn 0 -1 0
vn 0 -1 0
vn 0 -1 0
vn 0 -1 0
vn 0 -1 0
vn 0 -1 0
vn 0 -1 0
vn 0 -1 0
vn 0 -1 0
vn 0 -1 0
vn 0.8768966 0 0.4806789
vn 0.9845884 -0.137964 0.107478
vn 0.9940948 0 0.1085157
vn 0.8685111 -0.137964 0.4760823
vn 0.6261992 0 0.7796631
vn 0.9842139 -0.1406425 0.107437
vn 0.620211 -0.137964 0.7722073
vn 0.2801684 0 0.9599508
vn 0.8681808 -0.1406425 0.4759012
vn 0.9940801 -0.005413773 0.108514
vn 0.8768838 -0.005413773 0.480672
vn 0.619975 -0.1406425 0.7719136
vn 0.6261901 -0.005413772 0.7796516
vn 0.2774892 -0.137964 0.9507712
vn -0.1085154 0 0.9940948
vn 0.2773837 -0.1406425 0.9504094
vn 0.2801644 -0.005413773 0.9599367
vn -0.1074777 -0.137964 0.9845884
vn -0.4806786 0 0.8768968
vn -0.1074368 -0.1406426 0.9842139
vn -0.1085138 -0.005413774 0.9940801
vn -0.4760821 -0.137964 0.8685113
vn -0.779663 0 0.6261993
vn -0.475901 -0.1406425 0.8681808
vn -0.4806717 -0.005413775 0.8768839
vn -0.7722073 -0.137964 0.6202111
vn -0.9599508 0 0.2801683
vn -0.7719136 -0.1406426 0.6199751
vn -0.7796516 -0.005413775 0.6261901
vn -0.9507712 -0.137964 0.2774891
vn -0.9940948 0 -0.1085156
vn -0.9845884 -0.137964 -0.1074779
vn -0.9504094 -0.1406426 0.2773835
vn -0.9599369 -0.005413776 0.2801642
vn -0.9842139 -0.1406426 -0.107437
vn -0.9940801 -0.005413774 -0.108514
vn -0.8768966 0 -0.480679
vn -0.9845884 -0.137964 -0.1074779
vn -0.9940948 0 -0.1085156
vn -0.8685111 -0.137964 -0.4760824
vn -0.6261988 0 -0.7796634
vn -0.9842139 -0.1406426 -0.107437
vn -0.6202105 -0.137964 -0.7722077
vn -0.2801679 0 -0.959951
vn -0.8681808 -0.1406426 -0.4759012
vn -0.9940801 -0.005413774 -0.108514
vn -0.8768839 -0.005413775 -0.4806718
vn -0.6199746 -0.1406426 -0.771914
vn -0.6261895 -0.005413774 -0.7796521
vn -0.2774888 -0.137964 -0.9507712
vn 0.1085158 0 -0.9940948
vn -0.2773832 -0.1406426 -0.9504095
vn -0.2801638 -0.005413775 -0.959937
vn 0.1074781 -0.137964 -0.9845884
vn 0.480679 0 -0.8768966
vn 0.1074371 -0.1406426 -0.9842139
vn 0.1085141 -0.005413774 -0.9940801
vn 0.4760824 -0.137964 -0.8685111
vn 0.7796633 0 -0.6261991
vn 0.4759012 -0.1406425 -0.8681808
vn 0.4806718 -0.005413774 -0.8768839
vn 0.7722076 -0.137964 -0.6202108
vn 0.9599509 0 -0.2801682
vn 0.7719139 -0.1406425 -0.6199749
vn 0.7796519 -0.005413774 -0.6261898
vn 0.9507712 -0.137964 -0.277489
vn 0.9940948 0 0.1085157
vn 0.9845884 -0.137964 0.107478
vn 0.9504094 -0.1406425 -0.2773835
vn 0.9599369 -0.005413773 -0.2801642
vn 0.9842139 -0.1406425 0.107437
vn 0.9940801 -0.005413773 0.108514
vn 0 1 0
vn 0 1 0
vn 0 1 0
vn 0 1 0
vn 0 1 0
vn 0 1 0
vn 0 1 0
vn 0 1 0
vn 0 1 0
vn 0 1 0
vn 0 1 0
vn 0 1 0
vn 0 1 0
vn 0 1 0
vn 0 1 0
vn 0 1 0
vn 0 1 0
vn 0 1 0
g Cylinder.005_0
f 3/3/3 2/2/2 1/1/1
f 1/1/1 4/4/4 3/3/3
f 1/1/1 5/5/5 4/4/4
f 5/5/5 6/6/6 4/4/4
f 5/5/5 7/7/7 6/6/6
f 7/7/7 8/8/8 6/6/6
f 7/7/7 9/9/9 8/8/8
f 9/9/9 10/10/10 8/8/8
f 9/9/9 11/11/11 10/10/10
f 11/11/11 12/12/12 10/10/10
f 11/11/11 13/13/13 12/12/12
f 13/13/13 14/14/14 12/12/12
f 13/13/13 15/15/15 14/14/14
f 15/15/15 16/16/16 14/14/14
f 19/19/19 18/18/18 17/17/17
f 18/18/18 20/20/20 17/17/17
f 17/17/17 20/20/20 21/21/21
f 18/18/18 22/22/22 20/20/20
f 20/20/20 23/23/23 21/21/21
f 21/21/21 23/23/23 24/24/24
f 22/22/22 25/25/25 20/20/20
f 20/20/20 25/25/25 23/23/23
f 22/22/22 26/26/26 25/25/25
f 26/26/26 27/27/27 25/25/25
f 25/25/25 27/27/27 28/28/28
f 25/25/25 28/28/28 23/23/23
f 27/27/27 29/29/29 28/28/28
f 23/23/23 30/30/30 24/24/24
f 23/23/23 28/28/28 30/30/30
f 24/24/24 30/30/30 31/31/31
f 28/28/28 29/29/29 32/32/32
f 28/28/28 32/32/32 30/30/30
f 29/29/29 33/33/33 32/32/32
f 30/30/30 34/34/34 31/31/31
f 30/30/30 32/32/32 34/34/34
f 31/31/31 34/34/34 35/35/35
f 32/32/32 33/33/33 36/36/36
f 32/32/32 36/36/36 34/34/34
f 33/33/33 37/37/37 36/36/36
f 34/34/34 38/38/38 35/35/35
f 34/34/34 36/36/36 38/38/38
f 35/35/35 38/38/38 39/39/39
f 36/36/36 37/37/37 40/40/40
f 36/36/36 40/40/40 38/38/38
f 37/37/37 41/41/41 40/40/40
f 38/38/38 42/42/42 39/39/39
f 38/38/38 40/40/40 42/42/42
f 39/39/39 42/42/42 43/43/43
f 40/40/40 41/41/41 44/44/44
f 40/40/40 44/44/44 42/42/42
f 41/41/41 45/45/45 44/44/44
f 42/42/42 46/46/46 43/43/43
f 42/42/42 44/44/44 46/46/46
f 43/43/43 46/46/46 47/47/47
f 46/46/46 48/48/48 47/47/47
f 44/44/44 45/45/45 49/49/49
f 44/44/44 49/49/49 46/46/46
f 46/46/46 49/49/49 48/48/48
f 45/45/45 50/50/50 49/49/49
f 49/49/49 51/51/51 48/48/48
f 49/49/49 50/50/50 51/51/51
f 50/50/50 52/52/52 51/51/51
f 55/55/55 54/54/54 53/53/53
f 54/54/54 56/56/56 53/53/53
f 53/53/53 56/56/56 57/57/57
f 54/54/54 58/58/58 56/56/56
f 56/56/56 59/59/59 57/57/57
f 57/57/57 59/59/59 60/60/60
f 58/58/58 61/61/61 56/56/56
f 56/56/56 61/61/61 59/59/59
f 58/58/58 62/62/62 61/61/61
f 62/62/62 63/63/63 61/61/61
f 61/61/61 63/63/63 64/64/64
f 61/61/61 64/64/64 59/59/59
f 63/63/63 65/65/65 64/64/64
f 59/59/59 66/66/66 60/60/60
f 59/59/59 64/64/64 66/66/66
f 60/60/60 66/66/66 67/67/67
f 64/64/64 65/65/65 68/68/68
f 64/64/64 68/68/68 66/66/66
f 65/65/65 69/69/69 68/68/68
f 66/66/66 70/70/70 67/67/67
f 66/66/66 68/68/68 70/70/70
f 67/67/67 70/70/70 71/71/71
f 68/68/68 69/69/69 72/72/72
f 68/68/68 72/72/72 70/70/70
f 69/69/69 73/73/73 72/72/72
f 70/70/70 74/74/74 71/71/71
f 70/70/70 72/72/72 74/74/74
f 71/71/71 74/74/74 75/75/75
f 72/72/72 73/73/73 76/76/76
f 72/72/72 76/76/76 74/74/74
f 73/73/73 77/77/77 76/76/76
f 74/74/74 78/78/78 75/75/75
f 74/74/74 76/76/76 78/78/78
f 75/75/75 78/78/78 79/79/79
f 76/76/76 77/77/77 80/80/80
f 76/76/76 80/80/80 78/78/78
f 77/77/77 81/81/81 80/80/80
f 78/78/78 82/82/82 79/79/79
f 78/78/78 80/80/80 82/82/82
f 79/79/79 82/82/82 83/83/83
f 82/82/82 84/84/84 83/83/83
f 80/80/80 81/81/81 85/85/85
f 80/80/80 85/85/85 82/82/82
f 82/82/82 85/85/85 84/84/84
f 81/81/81 86/86/86 85/85/85
f 85/85/85 87/87/87 84/84/84
f 85/85/85 86/86/86 87/87/87
f 86/86/86 88/88/88 87/87/87
f 91/91/91 90/90/90 89/89/89
f 89/89/89 92/92/92 91/91/91
f 92/92/92 93/93/93 91/91/91
f 92/92/92 94/94/94 93/93/93
f 94/94/94 95/95/95 93/93/93
f 97/97/97 96/96/96 95/95/95
f 96/96/96 98/98/98 95/95/95
f 96/96/96 99/99/99 98/98/98
f 99/99/99 100/100/100 98/98/98
f 99/99/99 102/102/102 101/101/101
f 102/102/102 103/103/103 101/101/101
f 102/102/102 104/104/104 103/103/103
f 104/104/104 105/105/105 103/103/103
f 104/104/104 106/106/106 105/105/105
