g Body_05.009
v -0.01852386 1.771283E-08 0.008351663
v -1.668285E-05 1.912479E-08 -0.0003148734
v 0.01905207 1.769586E-08 0.0084558
v -0.02400098 1.572136E-08 0.02057522
v 0.02558998 1.571714E-08 0.02060109
v -0.02085773 1.429309E-08 0.02934183
v 9.315181E-07 1.430826E-08 0.02924877
v 0.02616135 1.429072E-08 0.02935641
v -0.05292898 0.0004077633 0.1707142
v 0.005778748 0.0004077637 0.1683662
v 0.08428359 0.0004077636 0.1692563
v 0.1055905 0.0004077585 0.2000356
v -0.07885151 0.0004077574 0.2070445
v 0.09532159 0.0004077507 0.2480844
v -0.07212858 0.0004077489 0.2591408
v 0.06746224 0.0004077403 0.3119101
v -0.03695216 0.0004077392 0.3186336
v 0.01083315 0.0004077363 0.3367986
v 0.02616135 -1 0.02935625
v 0.02561088 -0.9999963 0.02332829
v 9.315181E-07 -1 0.02924861
v -0.02085773 -1 0.02934167
v -0.02398007 -0.9999963 0.02330241
v 0.01905207 -1 0.008455637
v -0.01852386 -1 0.0083515
v -1.668285E-05 -1 -0.0003150364
v 0.0843045 -0.9995885 0.1719835
v 0.005778748 -0.9995922 0.1683661
v -0.05290808 -0.9995885 0.1734414
v 0.1055905 -0.9995922 0.2000354
v -0.07885151 -0.9995922 0.2070443
v 0.09532159 -0.9995922 0.2480842
v -0.07212858 -0.9995922 0.2591406
v 0.06746224 -0.9995922 0.3119099
v -0.03695216 -0.9995922 0.3186334
v 0.01083315 -0.9995922 0.3367985
v 0.0843045 -0.9995885 0.1719835
v 0.02561088 -0.9999963 0.02332829
v -0.02398007 -0.9999963 0.02330241
v -0.05290808 -0.9995885 0.1734414
v 0.005778748 0.0004077637 0.1683662
v 0.0843045 -0.9995885 0.1719835
v 0.08428359 0.0004077636 0.1692563
v 0.005778748 -0.9995922 0.1683661
v -0.05292898 0.0004077633 0.1707142
v -0.05290808 -0.9995885 0.1734414
v 0.02558998 1.571714E-08 0.02060109
v 0.02561088 -0.9999963 0.02332829
v 0.0843045 -0.9995885 0.1719835
v 0.08428359 0.0004077636 0.1692563
v 0.01905207 1.769586E-08 0.0084558
v 0.02561088 -0.9999963 0.02332829
v 0.02558998 1.571714E-08 0.02060109
v 0.01905207 -1 0.008455637
v -1.668285E-05 1.912479E-08 -0.0003148734
v -1.668285E-05 -1 -0.0003150364
v -0.01852386 1.771283E-08 0.008351663
v -0.01852386 -1 0.0083515
v -0.02400098 1.572136E-08 0.02057522
v -0.02398007 -0.9999963 0.02330241
v -0.05292898 0.0004077633 0.1707142
v -0.05290808 -0.9995885 0.1734414
v -0.02398007 -0.9999963 0.02330241
v -0.02400098 1.572136E-08 0.02057522
v 0.02558998 1.571714E-08 0.02060109
v 0.02561088 -0.9999963 0.02332829
v 0.02616135 -1 0.02935625
v 0.02616135 1.429072E-08 0.02935641
v 9.315181E-07 -1 0.02924861
v 9.315181E-07 1.430826E-08 0.02924877
v -0.02085773 -1 0.02934167
v -0.02085773 1.429309E-08 0.02934183
v -0.02398007 -0.9999963 0.02330241
v -0.02400098 1.572136E-08 0.02057522
v -0.02400098 1.572136E-08 0.02057522
v -0.02398007 -0.9999963 0.02330241
v 0.02561088 -0.9999963 0.02332829
v 0.02558998 1.571714E-08 0.02060109
v 0.08428359 0.0004077636 0.1692563
v -0.05292898 0.0004077633 0.1707142
v -0.05290808 -0.9995885 0.1734414
v 0.0843045 -0.9995885 0.1719835
v -0.07885151 0.0004077574 0.2070445
v -0.05290808 -0.9995885 0.1734414
v -0.05292898 0.0004077633 0.1707142
v -0.07885151 -0.9995922 0.2070443
v -0.07212858 0.0004077489 0.2591408
v -0.07212858 -0.9995922 0.2591406
v -0.03695216 0.0004077392 0.3186336
v -0.03695216 -0.9995922 0.3186334
v 0.01083315 0.0004077363 0.3367986
v 0.01083315 -0.9995922 0.3367985
v 0.06746224 0.0004077403 0.3119101
v 0.06746224 -0.9995922 0.3119099
v 0.09532159 0.0004077507 0.2480844
v 0.09532159 -0.9995922 0.2480842
v 0.1055905 0.0004077585 0.2000356
v 0.1055905 -0.9995922 0.2000354
v 0.08428359 0.0004077636 0.1692563
v 0.0843045 -0.9995885 0.1719835
vt 0.6781998 0.5589522
vt 0.6640609 0.514704
vt 0.6494931 0.5594839
vt 0.6823841 0.621361
vt 0.6444983 0.621493
vt 0.6799827 0.66612
vt 0.6640475 0.6656449
vt 0.6440619 0.6661944
vt 0.7228329 0.5145905
vt 0.6950845 0.5121196
vt 0.657979 0.5130563
vt 0.6479082 0.5454478
vt 0.7350852 0.5528239
vt 0.6527619 0.5960135
vt 0.7319077 0.6076491
vt 0.6659297 0.6631826
vt 0.7152814 0.6702582
vt 0.6926955 0.6893748
vt 0.6440619 0.6661944
vt 0.6444983 0.621493
vt 0.6640475 0.6656449
vt 0.6799827 0.66612
vt 0.6823841 0.621361
vt 0.6494931 0.5594839
vt 0.6781998 0.5589522
vt 0.6640609 0.514704
vt 0.657979 0.5130563
vt 0.6950845 0.5121196
vt 0.7228329 0.5145905
vt 0.6479082 0.5454478
vt 0.7350852 0.5528239
vt 0.6527619 0.5960135
vt 0.7319077 0.6076491
vt 0.6659297 0.6631826
vt 0.7152814 0.6702582
vt 0.6926955 0.6893748
vt 0.7602027 0.7531452
vt 0.8481773 0.7673981
vt 0.893955 0.780459
vt 0.7688804 0.7531291
vt 0.6950845 0.5121196
vt 0.657979 0.5130563
vt 0.657979 0.5130563
vt 0.6950845 0.5121196
vt 0.7228329 0.5145905
vt 0.7228329 0.5145905
vt 0.8481773 0.7673981
vt 0.8481773 0.7673981
vt 0.7602027 0.7531452
vt 0.7602027 0.7531452
vt 0.6494931 0.5594839
vt 0.6444983 0.621493
vt 0.6444983 0.621493
vt 0.6494931 0.5594839
vt 0.6640609 0.514704
vt 0.6640609 0.514704
vt 0.6781998 0.5589522
vt 0.6781998 0.5589522
vt 0.6823841 0.621361
vt 0.6823841 0.621361
vt 0.7688804 0.7531291
vt 0.7688804 0.7531291
vt 0.893955 0.780459
vt 0.893955 0.780459
vt 0.6444983 0.621493
vt 0.6444983 0.621493
vt 0.6440619 0.6661944
vt 0.6440619 0.6661944
vt 0.6640475 0.6656449
vt 0.6640475 0.6656449
vt 0.6799827 0.66612
vt 0.6799827 0.66612
vt 0.6823841 0.621361
vt 0.6823841 0.621361
vt 0.893955 0.780459
vt 0.893955 0.780459
vt 0.8481773 0.7673981
vt 0.8481773 0.7673981
vt 0.7602027 0.7531452
vt 0.7688804 0.7531291
vt 0.7688804 0.7531291
vt 0.7602027 0.7531452
vt 0.7350852 0.5528239
vt 0.7228329 0.5145905
vt 0.7228329 0.5145905
vt 0.7350852 0.5528239
vt 0.7319077 0.6076491
vt 0.7319077 0.6076491
vt 0.7152814 0.6702582
vt 0.7152814 0.6702582
vt 0.6926955 0.6893748
vt 0.6926955 0.6893748
vt 0.6659297 0.6631826
vt 0.6659297 0.6631826
vt 0.6527619 0.5960135
vt 0.6527619 0.5960135
vt 0.6479082 0.5454478
vt 0.6479082 0.5454478
vt 0.657979 0.5130563
vt 0.657979 0.5130563
vn 0 1 0
vn 0 1 0
vn 0 1 0
vn 0 1 0
vn 0 1 0
vn 0 1 0
vn 0 1 0
vn 0 1 0
vn 0 1 0
vn 0 1 0
vn 0 1 0
vn 0 1 0
vn 0 1 0
vn 0 1 0
vn 0 1 0
vn 0 1 0
vn 0 1 0
vn 0 1 0
vn 0 -1 -1.582291E-05
vn 0 -1 -1.582291E-05
vn 0 -1 -1.582291E-05
vn 0 -1 -1.582291E-05
vn 0 -1 -1.582291E-05
vn 0 -1 -1.582291E-05
vn 0 -1 -1.582291E-05
vn 0 -1 -1.582291E-05
vn 0 -1 -1.463231E-05
vn 0 -1 -1.463231E-05
vn 0 -1 -1.463231E-05
vn 0 -1 -1.463231E-05
vn 0 -1 -1.463231E-05
vn 0 -1 -1.463231E-05
vn 0 -1 -1.463231E-05
vn 0 -1 -1.463231E-05
vn 0 -1 -1.463231E-05
vn 0 -1 -1.463231E-05
vn 0.008441526 -0.6066146 0.7949513
vn 0.0003437931 -0.7800592 -0.6257057
vn 0.0003629051 -0.7479947 -0.6637046
vn 0.008021092 -0.655193 0.7554189
vn -0.01722578 -0.001363494 -0.9998507
vn 0.02869333 -0.001362643 -0.9995874
vn 0.02869333 -0.001362643 -0.9995874
vn -0.01722555 -0.001363494 -0.9998507
vn -0.06310857 -0.001361471 -0.9980058
vn -0.06310857 -0.001361471 -0.9980058
vn 0.930126 -0.0009820902 -0.3672393
vn 0.930126 -0.0009820902 -0.3672393
vn 0.930126 -0.0009820902 -0.3672393
vn 0.930126 -0.0009820902 -0.3672393
vn 0.6999044 -0.0003108314 -0.7142364
vn 0.8998517 -0.0005853547 -0.4361954
vn 0.8998517 -0.0005853547 -0.4361954
vn 0.6998858 -0.0003108088 -0.7142546
vn -0.003426772 0 -0.9999942
vn -0.003426773 0 -0.9999942
vn -0.7264302 -0.000278628 -0.6872401
vn -0.7264103 -0.0002786074 -0.6872613
vn -0.9277266 -0.0005186452 -0.3732601
vn -0.9277266 -0.0005186452 -0.3732601
vn -0.9819396 -0.0005364981 -0.1891936
vn -0.9819396 -0.0005364981 -0.1891936
vn -0.9819396 -0.0005364981 -0.1891936
vn -0.9819396 -0.0005364981 -0.1891936
vn 0.997133 -9.275184E-05 -0.07566833
vn 0.997133 -9.275184E-05 -0.07566833
vn 0.7318282 -6.847551E-05 0.6814891
vn 0.7319716 -6.848876E-05 0.681335
vn 0.0001734374 0 1
vn 0.0001734374 0 1
vn -0.5504362 0.0003132818 0.8348771
vn -0.5505325 0.0003133361 0.8348137
vn -0.9209319 0.0005217692 0.3897231
vn -0.9209319 0.0005217692 0.3897231
vn 0.0003317669 0.7443729 -0.667764
vn 0.0003629051 -0.7479947 -0.6637046
vn 0.0003437931 -0.7800592 -0.6257057
vn 0.0003113243 0.7766261 -0.6299618
vn 0.008416094 0.6109458 0.7916277
vn 0.007993706 0.6593002 0.7518374
vn 0.008021092 -0.655193 0.7554189
vn 0.008441526 -0.6066146 0.7949513
vn -0.9676887 -0.0004424244 -0.2521473
vn -0.8032071 -0.0008206432 -0.5956994
vn -0.8032071 -0.0008206432 -0.5956994
vn -0.9676915 -0.0004424122 -0.2521366
vn -0.9456664 0 0.3251382
vn -0.9456664 0 0.3251382
vn -0.6442511 0 0.764814
vn -0.6442512 0 0.764814
vn 0.02540734 0 0.9996772
vn 0.02540734 0 0.9996772
vn 0.707999 0 0.7062134
vn 0.7079991 0 0.7062134
vn 0.9520107 0 0.3060648
vn 0.9520107 0 0.3060647
vn 0.9784363 -0.0004329659 -0.2065484
vn 0.9784394 -0.0004329515 -0.2065339
vn 0.8100008 -0.0007911344 -0.5864282
vn 0.8100008 -0.0007911344 -0.5864282
g Body_05.009_0
f 3/3/3 2/2/2 1/1/1
f 1/1/1 4/4/4 3/3/3
f 4/4/4 5/5/5 3/3/3
f 4/4/4 6/6/6 5/5/5
f 6/6/6 7/7/7 5/5/5
f 5/5/5 7/7/7 8/8/8
f 11/11/11 10/10/10 9/9/9
f 9/9/9 12/12/12 11/11/11
f 9/9/9 13/13/13 12/12/12
f 13/13/13 14/14/14 12/12/12
f 13/13/13 15/15/15 14/14/14
f 15/15/15 16/16/16 14/14/14
f 15/15/15 17/17/17 16/16/16
f 17/17/17 18/18/18 16/16/16
f 21/21/21 20/20/20 19/19/19
f 20/20/20 21/21/21 22/22/22
f 20/20/20 22/22/22 23/23/23
f 24/24/24 20/20/20 23/23/23
f 24/24/24 23/23/23 25/25/25
f 25/25/25 26/26/26 24/24/24
f 29/29/29 28/28/28 27/27/27
f 27/27/27 30/30/30 29/29/29
f 30/30/30 31/31/31 29/29/29
f 30/30/30 32/32/32 31/31/31
f 32/32/32 33/33/33 31/31/31
f 32/32/32 34/34/34 33/33/33
f 34/34/34 35/35/35 33/33/33
f 34/34/34 36/36/36 35/35/35
f 39/39/39 38/38/38 37/37/37
f 40/40/40 39/39/39 37/37/37
f 43/43/43 42/42/42 41/41/41
f 42/42/42 44/44/44 41/41/41
f 41/41/41 44/44/44 45/45/45
f 44/44/44 46/46/46 45/45/45
f 49/49/49 48/48/48 47/47/47
f 50/50/50 49/49/49 47/47/47
f 53/53/53 52/52/52 51/51/51
f 52/52/52 54/54/54 51/51/51
f 51/51/51 54/54/54 55/55/55
f 54/54/54 56/56/56 55/55/55
f 55/55/55 56/56/56 57/57/57
f 56/56/56 58/58/58 57/57/57
f 57/57/57 58/58/58 59/59/59
f 58/58/58 60/60/60 59/59/59
f 63/63/63 62/62/62 61/61/61
f 64/64/64 63/63/63 61/61/61
f 67/67/67 66/66/66 65/65/65
f 68/68/68 67/67/67 65/65/65
f 69/69/69 67/67/67 68/68/68
f 70/70/70 69/69/69 68/68/68
f 71/71/71 69/69/69 70/70/70
f 72/72/72 71/71/71 70/70/70
f 73/73/73 71/71/71 72/72/72
f 74/74/74 73/73/73 72/72/72
f 77/77/77 76/76/76 75/75/75
f 78/78/78 77/77/77 75/75/75
f 78/78/78 75/75/75 79/79/79
f 75/75/75 80/80/80 79/79/79
f 80/80/80 81/81/81 79/79/79
f 81/81/81 82/82/82 79/79/79
f 85/85/85 84/84/84 83/83/83
f 84/84/84 86/86/86 83/83/83
f 83/83/83 86/86/86 87/87/87
f 86/86/86 88/88/88 87/87/87
f 87/87/87 88/88/88 89/89/89
f 88/88/88 90/90/90 89/89/89
f 89/89/89 90/90/90 91/91/91
f 90/90/90 92/92/92 91/91/91
f 91/91/91 92/92/92 93/93/93
f 92/92/92 94/94/94 93/93/93
f 93/93/93 94/94/94 95/95/95
f 94/94/94 96/96/96 95/95/95
f 95/95/95 96/96/96 97/97/97
f 96/96/96 98/98/98 97/97/97
f 97/97/97 98/98/98 99/99/99
f 98/98/98 100/100/100 99/99/99
