g Body_05.002
v 0.009912682 0.1493842 -0.03468527
v 0.01048406 0.1406289 -0.03468528
v -0.01567636 0.1407365 -0.03468528
v 0.003374777 0.1615295 -0.03468527
v -0.01569398 0.1703002 -0.03468527
v -0.03653502 0.1406435 -0.03468528
v -0.03420115 0.1616336 -0.03468527
v -0.03967828 0.1494101 -0.03468527
v 0.06860628 0.0007289574 -0.03427752
v 0.08991316 -0.03005029 -0.03427752
v 0.07964428 -0.07809905 -0.03427752
v 0.05178493 -0.1419248 -0.03427753
v -0.009898548 0.001619082 -0.03427752
v -0.004844141 -0.1668133 -0.03427753
v -0.05262946 -0.1486483 -0.03427753
v -0.06860628 -0.0007289425 -0.03427752
v -0.08780587 -0.08915544 -0.03427752
v -0.09452881 -0.03705917 -0.03427752
v -0.01567636 0.1407362 -1.034685
v 0.01048406 0.1406286 -1.034685
v 0.009912682 0.1493839 -1.034685
v 0.003374777 0.1615292 -1.034685
v -0.01569398 0.1702999 -1.034685
v -0.03653502 0.1406432 -1.034685
v -0.03420115 0.1616334 -1.034685
v -0.03967828 0.1494098 -1.034685
v 0.07964428 -0.07809895 -1.034277
v 0.08991316 -0.03005016 -1.034277
v 0.06860628 0.000729084 -1.034277
v 0.05178493 -0.1419247 -1.034277
v -0.009898548 0.00161922 -1.034277
v -0.004844141 -0.1668133 -1.034277
v -0.05262946 -0.1486481 -1.034277
v -0.06860628 -0.0007288456 -1.034277
v -0.08780587 -0.08915538 -1.034277
v -0.09452881 -0.03705907 -1.034277
v -0.06860628 -0.0007289425 -0.03427752
v -0.06860628 -0.0007288456 -1.034277
v -0.009898548 0.00161922 -1.034277
v -0.009898548 0.001619082 -0.03427752
v 0.06860628 0.000729084 -1.034277
v 0.06860628 0.0007289574 -0.03427752
v 0.01048406 0.1406289 -0.03468528
v 0.01048406 0.1406286 -1.034685
v -0.01567636 0.1407362 -1.034685
v -0.01567636 0.1407365 -0.03468528
v -0.03653502 0.1406432 -1.034685
v -0.03653502 0.1406435 -0.03468528
v -0.09452881 -0.03705917 -0.03427752
v -0.09452881 -0.03705907 -1.034277
v -0.08780587 -0.08915544 -0.03427752
v -0.08780587 -0.08915538 -1.034277
v -0.05262946 -0.1486483 -0.03427753
v -0.05262946 -0.1486481 -1.034277
v -0.004844141 -0.1668133 -0.03427753
v -0.004844141 -0.1668133 -1.034277
v 0.05178493 -0.1419248 -0.03427753
v 0.05178493 -0.1419247 -1.034277
v 0.07964428 -0.07809905 -0.03427752
v 0.07964428 -0.07809895 -1.034277
v 0.08991316 -0.03005029 -0.03427752
v 0.08991316 -0.03005016 -1.034277
v 0.009912682 0.1493842 -0.03468527
v 0.009912682 0.1493839 -1.034685
v 0.003374777 0.1615295 -0.03468527
v 0.003374777 0.1615292 -1.034685
v -0.01569398 0.1703002 -0.03468527
v -0.01569398 0.1702999 -1.034685
v -0.03420115 0.1616336 -0.03468527
v -0.03420115 0.1616334 -1.034685
v -0.03967828 0.1494101 -0.03468527
v -0.03967828 0.1494098 -1.034685
vt 0.6444983 0.621493
vt 0.6440619 0.6661944
vt 0.6640475 0.6656449
vt 0.6494931 0.5594839
vt 0.6640609 0.514704
vt 0.6799827 0.66612
vt 0.6781998 0.5589522
vt 0.6823841 0.621361
vt 0.657979 0.5130563
vt 0.6479082 0.5454478
vt 0.6527619 0.5960135
vt 0.6659297 0.6631826
vt 0.6950845 0.5121196
vt 0.6926955 0.6893748
vt 0.7152814 0.6702582
vt 0.7228329 0.5145905
vt 0.7319077 0.6076491
vt 0.7350852 0.5528239
vt 0.6640475 0.6656449
vt 0.6440619 0.6661944
vt 0.6444983 0.621493
vt 0.6494931 0.5594839
vt 0.6640609 0.514704
vt 0.6799827 0.66612
vt 0.6781998 0.5589522
vt 0.6823841 0.621361
vt 0.6527619 0.5960135
vt 0.6479082 0.5454478
vt 0.657979 0.5130563
vt 0.6659297 0.6631826
vt 0.6950845 0.5121196
vt 0.6926955 0.6893748
vt 0.7152814 0.6702582
vt 0.7228329 0.5145905
vt 0.7319077 0.6076491
vt 0.7350852 0.5528239
vt 0.7228329 0.5145905
vt 0.7228329 0.5145905
vt 0.6950845 0.5121196
vt 0.6950845 0.5121196
vt 0.657979 0.5130563
vt 0.657979 0.5130563
vt 0.6440619 0.6661944
vt 0.6440619 0.6661944
vt 0.6640475 0.6656449
vt 0.6640475 0.6656449
vt 0.6799827 0.66612
vt 0.6799827 0.66612
vt 0.7350852 0.5528239
vt 0.7350852 0.5528239
vt 0.7319077 0.6076491
vt 0.7319077 0.6076491
vt 0.7152814 0.6702582
vt 0.7152814 0.6702582
vt 0.6926955 0.6893748
vt 0.6926955 0.6893748
vt 0.6659297 0.6631826
vt 0.6659297 0.6631826
vt 0.6527619 0.5960135
vt 0.6527619 0.5960135
vt 0.6479082 0.5454478
vt 0.6479082 0.5454478
vt 0.6444983 0.621493
vt 0.6444983 0.621493
vt 0.6494931 0.5594839
vt 0.6494931 0.5594839
vt 0.6640609 0.514704
vt 0.6640609 0.514704
vt 0.6781998 0.5589522
vt 0.6781998 0.5589522
vt 0.6823841 0.621361
vt 0.6823841 0.621361
vn 0 0 1
vn 0 0 1
vn 0 0 1
vn 0 0 1
vn 0 0 1
vn 0 0 1
vn 0 0 1
vn 0 0 1
vn 0 0 1
vn 0 0 1
vn 0 0 1
vn 0 0 1
vn 0 0 1
vn 0 0 1
vn 0 0 1
vn 0 0 1
vn 0 0 1
vn 0 0 1
vn 0 0 -1
vn 0 0 -1
vn 0 0 -1
vn 0 0 -1
vn 0 0 -1
vn 0 0 -1
vn 0 0 -1
vn 0 0 -1
vn 0 0 -1
vn 0 0 -1
vn 0 0 -1
vn 0 0 -1
vn 0 0 -1
vn 0 0 -1
vn 0 0 -1
vn 0 0 -1
vn 0 0 -1
vn 0 0 -1
vn -0.4754825 0.8797252 0
vn -0.4754824 0.8797252 0
vn -0.01431758 0.9998975 0
vn -0.01431758 0.9998975 0
vn 0.4691384 0.8831246 0
vn 0.4691385 0.8831246 0
vn 0.7283598 -0.685195 0
vn 0.7283594 -0.6851953 0
vn 0.0001721785 -1 0
vn 0.0001721785 -1 0
vn -0.5737137 -0.8190559 0
vn -0.5737139 -0.8190558 0
vn -0.9699665 0.2432386 0
vn -0.9699665 0.2432386 0
vn -0.9456664 -0.3251384 0
vn -0.9456664 -0.3251383 0
vn -0.6442514 -0.7648137 0
vn -0.6442514 -0.7648137 0
vn 0.02540732 -0.9996772 0
vn 0.02540734 -0.9996772 0
vn 0.7079992 -0.7062132 0
vn 0.7079993 -0.7062131 0
vn 0.9520107 -0.3060648 0
vn 0.9520107 -0.3060648 0
vn 0.9805647 0.1961961 0
vn 0.9805647 0.1961961 0
vn 0.9611949 0.2758706 0
vn 0.9611949 0.2758704 0
vn 0.6845863 0.7289318 0
vn 0.6845863 0.7289318 0
vn -0.003425999 0.9999942 0
vn -0.003425998 0.9999942 0
vn -0.7129847 0.7011795 0
vn -0.7129848 0.7011794 0
vn -0.9992593 0.0384823 0
vn -0.9992593 0.03848207 0
g Body_05.002_0
f 3/3/3 2/2/2 1/1/1
f 1/1/1 4/4/4 3/3/3
f 4/4/4 5/5/5 3/3/3
f 5/5/5 6/6/6 3/3/3
f 5/5/5 7/7/7 6/6/6
f 7/7/7 8/8/8 6/6/6
f 11/11/11 10/10/10 9/9/9
f 9/9/9 12/12/12 11/11/11
f 9/9/9 13/13/13 12/12/12
f 13/13/13 14/14/14 12/12/12
f 13/13/13 15/15/15 14/14/14
f 13/13/13 16/16/16 15/15/15
f 16/16/16 17/17/17 15/15/15
f 16/16/16 18/18/18 17/17/17
f 21/21/21 20/20/20 19/19/19
f 19/19/19 22/22/22 21/21/21
f 19/19/19 23/23/23 22/22/22
f 19/19/19 24/24/24 23/23/23
f 24/24/24 25/25/25 23/23/23
f 24/24/24 26/26/26 25/25/25
f 29/29/29 28/28/28 27/27/27
f 27/27/27 30/30/30 29/29/29
f 30/30/30 31/31/31 29/29/29
f 30/30/30 32/32/32 31/31/31
f 32/32/32 33/33/33 31/31/31
f 33/33/33 34/34/34 31/31/31
f 33/33/33 35/35/35 34/34/34
f 35/35/35 36/36/36 34/34/34
f 39/39/39 38/38/38 37/37/37
f 40/40/40 39/39/39 37/37/37
f 41/41/41 39/39/39 40/40/40
f 42/42/42 41/41/41 40/40/40
f 45/45/45 44/44/44 43/43/43
f 46/46/46 45/45/45 43/43/43
f 47/47/47 45/45/45 46/46/46
f 48/48/48 47/47/47 46/46/46
g Body_05.002_1
f 37/37/37 38/38/38 49/49/49
f 38/38/38 50/50/50 49/49/49
f 49/49/49 50/50/50 51/51/51
f 50/50/50 52/52/52 51/51/51
f 51/51/51 52/52/52 53/53/53
f 52/52/52 54/54/54 53/53/53
f 53/53/53 54/54/54 55/55/55
f 54/54/54 56/56/56 55/55/55
f 55/55/55 56/56/56 57/57/57
f 56/56/56 58/58/58 57/57/57
f 57/57/57 58/58/58 59/59/59
f 58/58/58 60/60/60 59/59/59
f 59/59/59 60/60/60 61/61/61
f 60/60/60 62/62/62 61/61/61
f 61/61/61 62/62/62 42/42/42
f 62/62/62 41/41/41 42/42/42
f 43/43/43 44/44/44 63/63/63
f 44/44/44 64/64/64 63/63/63
f 63/63/63 64/64/64 65/65/65
f 64/64/64 66/66/66 65/65/65
f 65/65/65 66/66/66 67/67/67
f 66/66/66 68/68/68 67/67/67
f 67/67/67 68/68/68 69/69/69
f 68/68/68 70/70/70 69/69/69
f 69/69/69 70/70/70 71/71/71
f 70/70/70 72/72/72 71/71/71
f 71/71/71 72/72/72 48/48/48
f 72/72/72 47/47/47 48/48/48
