g Body_05.019
v -0.01852386 -1.360659E-09 0.008351664
v -1.668285E-05 5.129935E-11 -0.0003148731
v 0.01905207 -1.377625E-09 0.0084558
v -0.02400098 -3.352129E-09 0.02057522
v 0.02558998 -3.356344E-09 0.02060109
v -0.02085773 -4.780392E-09 0.02934183
v 9.315181E-07 -4.76523E-09 0.02924877
v 0.02616135 -4.782767E-09 0.02935641
v -0.05292898 0.0004077442 0.1707142
v 0.005778748 0.0004077446 0.1683662
v 0.08428359 0.0004077445 0.1692563
v 0.1055905 0.0004077395 0.2000356
v -0.07885151 0.0004077383 0.2070445
v 0.09532159 0.0004077316 0.2480844
v -0.07212858 0.0004077298 0.2591408
v 0.06746224 0.0004077212 0.3119101
v -0.03694185 0.0004253822 0.3187677
v 0.01083661 0.00041363 0.3368435
v -0.01852386 -1.36067E-09 0.008351732
v -1.668285E-05 5.128828E-11 -0.0003148052
v 0.01905207 -1.377636E-09 0.008455868
v -0.02400098 -3.35214E-09 0.02057529
v 0.02558998 -3.356356E-09 0.02060116
v -0.02085773 1.429308E-08 0.0293419
v 9.315181E-07 1.430824E-08 0.02924884
v 0.02616135 1.429071E-08 0.02935648
v -0.07885151 0.0004078146 0.2070445
v -0.04018544 0.0003816911 0.1631797
v 0.005778748 0.0004078019 0.1683663
v 0.1055905 0.0004077967 0.2000357
v 0.05573956 0.0003562866 0.1544307
v 0.09532159 0.0004078079 0.2480844
v -0.07212858 0.0004078061 0.2591408
v 0.06746224 0.0004078166 0.3119102
v -0.03695216 0.0004078346 0.3186336
v 0.01083315 0.0004078316 0.3367987
v 0.02616135 -1 0.02935625
v 0.02561088 -0.9999963 0.02332829
v 9.315181E-07 -1 0.02924861
v -0.02085773 -1 0.02934167
v -0.02398007 -0.9999963 0.02330241
v 0.01905207 -1 0.008455637
v -0.01852386 -1 0.008351501
v -1.668285E-05 -1 -0.0003150361
v 0.0843045 -0.9995885 0.1719835
v 0.005750803 -0.9995922 0.1684097
v -0.05290808 -0.9995885 0.1734414
v 0.1055625 -0.9995922 0.2000791
v -0.07887945 -0.9995922 0.207088
v 0.09529364 -0.9995922 0.2481279
v -0.07215653 -0.9995922 0.2591843
v 0.06743429 -0.9995922 0.3119536
v -0.0369698 -0.9995746 0.3188112
v 0.01080866 -0.9995863 0.3368871
v 0.0843045 -0.9995885 0.1719835
v 0.02561088 -0.9999963 0.02332829
v -0.02398007 -0.9999963 0.02330241
v -0.05290808 -0.9995885 0.1734414
v 0.02616135 -1 0.02935714
v 0.02557548 -0.9999964 0.02327155
v 9.311723E-07 -1 0.02924951
v -0.02085773 -1 0.02934257
v -0.02401548 -0.9999964 0.02324567
v 0.01905207 -1 0.008456531
v -0.01852386 -1 0.008352395
v -1.668319E-05 -1 -0.0003141423
v 0.1055776 -0.9995922 0.2001878
v 0.05572506 -0.9996401 0.1571011
v 0.005765845 -0.9995921 0.1685185
v -0.0788644 -0.9995922 0.2071967
v -0.04019994 -0.9996147 0.1658501
v 0.09530868 -0.9995922 0.2482366
v -0.07214148 -0.9995922 0.259293
v 0.06744933 -0.9995922 0.3120623
v -0.03696506 -0.9995922 0.3187858
v 0.01082025 -0.9995922 0.3369509
v 0.05572506 -0.9996401 0.1571011
v 0.02557548 -0.9999964 0.02327155
v -0.02401548 -0.9999964 0.02324567
v -0.04019994 -0.9996147 0.1658501
v 0.005778748 0.0004078019 0.1683663
v 0.05572506 -0.9996401 0.1571011
v 0.05573956 0.0003562866 0.1544307
v 0.005765845 -0.9995921 0.1685185
v -0.04018544 0.0003816911 0.1631797
v -0.04019994 -0.9996147 0.1658501
v 0.01905207 -1.377636E-09 0.008455868
v 0.02557548 -0.9999964 0.02327155
v 0.02558998 -3.356356E-09 0.02060116
v 0.01905207 -1 0.008456531
v -1.668285E-05 5.128828E-11 -0.0003148052
v -1.668319E-05 -1 -0.0003141423
v -0.01852386 -1.36067E-09 0.008351732
v -0.01852386 -1 0.008352395
v -0.02400098 -3.35214E-09 0.02057529
v -0.02401548 -0.9999964 0.02324567
v 0.02558998 -3.356356E-09 0.02060116
v 0.02557548 -0.9999964 0.02327155
v 0.05572506 -0.9996401 0.1571011
v 0.05573956 0.0003562866 0.1544307
v -0.02085773 -4.780392E-09 0.02934183
v -0.02398007 -0.9999963 0.02330241
v -0.02400098 -3.352129E-09 0.02057522
v -0.02085773 -1 0.02934167
v 9.315181E-07 -4.76523E-09 0.02924877
v 9.315181E-07 -1 0.02924861
v 0.02616135 -4.782767E-09 0.02935641
v 0.02616135 -1 0.02935625
v 0.02558998 -3.356344E-09 0.02060109
v 0.02561088 -0.9999963 0.02332829
v 0.02558998 -3.356356E-09 0.02060116
v 0.02557548 -0.9999964 0.02327155
v 0.02616135 -1 0.02935714
v 0.02616135 1.429071E-08 0.02935648
v 9.311723E-07 -1 0.02924951
v 9.315181E-07 1.430824E-08 0.02924884
v -0.02085773 -1 0.02934257
v -0.02085773 1.429308E-08 0.0293419
v -0.02401548 -0.9999964 0.02324567
v -0.02400098 -3.35214E-09 0.02057529
v -0.04018544 0.0003816911 0.1631797
v -0.04019994 -0.9996147 0.1658501
v -0.02401548 -0.9999964 0.02324567
v -0.02400098 -3.35214E-09 0.02057529
v -0.02400098 -3.352129E-09 0.02057522
v -0.02398007 -0.9999963 0.02330241
v -0.01852386 -1 0.008351501
v -0.01852386 -1.360659E-09 0.008351664
v -1.668285E-05 -1 -0.0003150361
v -1.668285E-05 5.129935E-11 -0.0003148731
v 0.01905207 -1 0.008455637
v 0.01905207 -1.377625E-09 0.0084558
v 0.02561088 -0.9999963 0.02332829
v 0.02558998 -3.356344E-09 0.02060109
v -0.07885151 0.0004077383 0.2070445
v -0.05290808 -0.9995885 0.1734414
v -0.05292898 0.0004077442 0.1707142
v -0.07887945 -0.9995922 0.207088
v -0.07212858 0.0004077298 0.2591408
v -0.07215653 -0.9995922 0.2591843
v -0.03694185 0.0004253822 0.3187677
v -0.0369698 -0.9995746 0.3188112
v 0.01083661 0.00041363 0.3368435
v 0.01080866 -0.9995863 0.3368871
v 0.06746224 0.0004077212 0.3119101
v 0.06743429 -0.9995922 0.3119536
v 0.09532159 0.0004077316 0.2480844
v 0.09529364 -0.9995922 0.2481279
v 0.1055905 0.0004077395 0.2000356
v 0.1055625 -0.9995922 0.2000791
v 0.08428359 0.0004077445 0.1692563
v 0.0843045 -0.9995885 0.1719835
v -0.02400098 -3.35214E-09 0.02057529
v -0.02401548 -0.9999964 0.02324567
v 0.02557548 -0.9999964 0.02327155
v 0.02558998 -3.356356E-09 0.02060116
v 0.05573956 0.0003562866 0.1544307
v -0.04018544 0.0003816911 0.1631797
v -0.04019994 -0.9996147 0.1658501
v 0.05572506 -0.9996401 0.1571011
v -0.05292898 0.0004077442 0.1707142
v -0.05290808 -0.9995885 0.1734414
v 0.005750803 -0.9995922 0.1684097
v 0.005778748 0.0004077446 0.1683662
v 0.0843045 -0.9995885 0.1719835
v 0.08428359 0.0004077445 0.1692563
v 0.05573956 0.0003562866 0.1544307
v 0.05572506 -0.9996401 0.1571011
v 0.1055776 -0.9995922 0.2001878
v 0.1055905 0.0004077967 0.2000357
v 0.09530868 -0.9995922 0.2482366
v 0.09532159 0.0004078079 0.2480844
v 0.06744933 -0.9995922 0.3120623
v 0.06746224 0.0004078166 0.3119102
v 0.01082025 -0.9995922 0.3369509
v 0.01083315 0.0004078316 0.3367987
v -0.03696506 -0.9995922 0.3187858
v -0.03695216 0.0004078346 0.3186336
v -0.07214148 -0.9995922 0.259293
v -0.07212858 0.0004078061 0.2591408
v -0.0788644 -0.9995922 0.2071967
v -0.07885151 0.0004078146 0.2070445
v -0.04019994 -0.9996147 0.1658501
v -0.04018544 0.0003816911 0.1631797
v 0.02558998 -3.356344E-09 0.02060109
v 0.02561088 -0.9999963 0.02332829
v 0.0843045 -0.9995885 0.1719835
v 0.08428359 0.0004077445 0.1692563
v -0.05292898 0.0004077442 0.1707142
v -0.05290808 -0.9995885 0.1734414
v -0.02398007 -0.9999963 0.02330241
v -0.02400098 -3.352129E-09 0.02057522
v -0.02400098 -3.352129E-09 0.02057522
v -0.02398007 -0.9999963 0.02330241
v 0.02561088 -0.9999963 0.02332829
v 0.02558998 -3.356344E-09 0.02060109
v 0.08428359 0.0004077445 0.1692563
v -0.05292898 0.0004077442 0.1707142
v -0.05290808 -0.9995885 0.1734414
v 0.0843045 -0.9995885 0.1719835
vt 0.6781998 0.5589522
vt 0.6640609 0.514704
vt 0.6494931 0.5594839
vt 0.6823841 0.621361
vt 0.6444983 0.621493
vt 0.6799827 0.66612
vt 0.6640475 0.6656449
vt 0.6440619 0.6661944
vt 0.7228329 0.5145905
vt 0.6950845 0.5121196
vt 0.657979 0.5130563
vt 0.6479082 0.5454478
vt 0.7350852 0.5528239
vt 0.6527619 0.5960135
vt 0.7319077 0.6076491
vt 0.6659297 0.6631826
vt 0.7152814 0.6702582
vt 0.6926955 0.6893748
vt 0.6781998 0.5589522
vt 0.6640609 0.514704
vt 0.6494931 0.5594839
vt 0.6823841 0.621361
vt 0.6444983 0.621493
vt 0.6799827 0.66612
vt 0.6640475 0.6656449
vt 0.6440619 0.6661944
vt 0.7350852 0.5528239
vt 0.7228329 0.5145905
vt 0.6950845 0.5121196
vt 0.6479082 0.5454478
vt 0.657979 0.5130563
vt 0.6527619 0.5960135
vt 0.7319077 0.6076491
vt 0.6659297 0.6631826
vt 0.7152814 0.6702582
vt 0.6926955 0.6893748
vt 0.6440619 0.6661944
vt 0.6444983 0.621493
vt 0.6640475 0.6656449
vt 0.6799827 0.66612
vt 0.6823841 0.621361
vt 0.6494931 0.5594839
vt 0.6781998 0.5589522
vt 0.6640609 0.514704
vt 0.657979 0.5130563
vt 0.6950845 0.5121196
vt 0.7228329 0.5145905
vt 0.6479082 0.5454478
vt 0.7350852 0.5528239
vt 0.6527619 0.5960135
vt 0.7319077 0.6076491
vt 0.6659297 0.6631826
vt 0.7152814 0.6702582
vt 0.6926955 0.6893748
vt 0.7602027 0.7531452
vt 0.8481773 0.7673981
vt 0.893955 0.780459
vt 0.7688804 0.7531291
vt 0.6440619 0.6661944
vt 0.6444983 0.621493
vt 0.6640475 0.6656449
vt 0.6799827 0.66612
vt 0.6823841 0.621361
vt 0.6494931 0.5594839
vt 0.6781998 0.5589522
vt 0.6640609 0.514704
vt 0.6479082 0.5454478
vt 0.657979 0.5130563
vt 0.6950845 0.5121196
vt 0.7350852 0.5528239
vt 0.7228329 0.5145905
vt 0.6527619 0.5960135
vt 0.7319077 0.6076491
vt 0.6659297 0.6631826
vt 0.7152814 0.6702582
vt 0.6926955 0.6893748
vt 0.7602027 0.7531452
vt 0.8481773 0.7673981
vt 0.893955 0.780459
vt 0.7688804 0.7531291
vt 0.6950845 0.5121196
vt 0.657979 0.5130563
vt 0.657979 0.5130563
vt 0.6950845 0.5121196
vt 0.7228329 0.5145905
vt 0.7228329 0.5145905
vt 0.6494931 0.5594839
vt 0.6444983 0.621493
vt 0.6444983 0.621493
vt 0.6494931 0.5594839
vt 0.6640609 0.514704
vt 0.6640609 0.514704
vt 0.6781998 0.5589522
vt 0.6781998 0.5589522
vt 0.6823841 0.621361
vt 0.6823841 0.621361
vt 0.8481773 0.7673981
vt 0.8481773 0.7673981
vt 0.7602027 0.7531452
vt 0.7602027 0.7531452
vt 0.6799827 0.66612
vt 0.6823841 0.621361
vt 0.6823841 0.621361
vt 0.6799827 0.66612
vt 0.6640475 0.6656449
vt 0.6640475 0.6656449
vt 0.6440619 0.6661944
vt 0.6440619 0.6661944
vt 0.6444983 0.621493
vt 0.6444983 0.621493
vt 0.6444983 0.621493
vt 0.6444983 0.621493
vt 0.6440619 0.6661944
vt 0.6440619 0.6661944
vt 0.6640475 0.6656449
vt 0.6640475 0.6656449
vt 0.6799827 0.66612
vt 0.6799827 0.66612
vt 0.6823841 0.621361
vt 0.6823841 0.621361
vt 0.7688804 0.7531291
vt 0.7688804 0.7531291
vt 0.893955 0.780459
vt 0.893955 0.780459
vt 0.6823841 0.621361
vt 0.6823841 0.621361
vt 0.6781998 0.5589522
vt 0.6781998 0.5589522
vt 0.6640609 0.514704
vt 0.6640609 0.514704
vt 0.6494931 0.5594839
vt 0.6494931 0.5594839
vt 0.6444983 0.621493
vt 0.6444983 0.621493
vt 0.7350852 0.5528239
vt 0.7228329 0.5145905
vt 0.7228329 0.5145905
vt 0.7350852 0.5528239
vt 0.7319077 0.6076491
vt 0.7319077 0.6076491
vt 0.7152814 0.6702582
vt 0.7152814 0.6702582
vt 0.6926955 0.6893748
vt 0.6926955 0.6893748
vt 0.6659297 0.6631826
vt 0.6659297 0.6631826
vt 0.6527619 0.5960135
vt 0.6527619 0.5960135
vt 0.6479082 0.5454478
vt 0.6479082 0.5454478
vt 0.657979 0.5130563
vt 0.657979 0.5130563
vt 0.893955 0.780459
vt 0.893955 0.780459
vt 0.8481773 0.7673981
vt 0.8481773 0.7673981
vt 0.7602027 0.7531452
vt 0.7688804 0.7531291
vt 0.7688804 0.7531291
vt 0.7602027 0.7531452
vt 0.7228329 0.5145905
vt 0.7228329 0.5145905
vt 0.6950845 0.5121196
vt 0.6950845 0.5121196
vt 0.657979 0.5130563
vt 0.657979 0.5130563
vt 0.657979 0.5130563
vt 0.657979 0.5130563
vt 0.6479082 0.5454478
vt 0.6479082 0.5454478
vt 0.6527619 0.5960135
vt 0.6527619 0.5960135
vt 0.6659297 0.6631826
vt 0.6659297 0.6631826
vt 0.6926955 0.6893748
vt 0.6926955 0.6893748
vt 0.7152814 0.6702582
vt 0.7152814 0.6702582
vt 0.7319077 0.6076491
vt 0.7319077 0.6076491
vt 0.7350852 0.5528239
vt 0.7350852 0.5528239
vt 0.7228329 0.5145905
vt 0.7228329 0.5145905
vt 0.8481773 0.7673981
vt 0.8481773 0.7673981
vt 0.7602027 0.7531452
vt 0.7602027 0.7531452
vt 0.7688804 0.7531291
vt 0.7688804 0.7531291
vt 0.893955 0.780459
vt 0.893955 0.780459
vt 0.893955 0.780459
vt 0.893955 0.780459
vt 0.8481773 0.7673981
vt 0.8481773 0.7673981
vt 0.7602027 0.7531452
vt 0.7688804 0.7531291
vt 0.7688804 0.7531291
vt 0.7602027 0.7531452
vn 0 1 0
vn 0 1 0
vn 0 1 0
vn 0 1 0
vn 0 1 0
vn 0 1 0
vn 0 1 0
vn 0 1 0
vn 2.794504E-05 1 -4.353589E-05
vn 2.794504E-05 1 -4.353589E-05
vn 2.794504E-05 1 -4.353589E-05
vn 2.794504E-05 1 -4.353589E-05
vn 2.794504E-05 1 -4.353589E-05
vn 2.794504E-05 1 -4.353589E-05
vn 2.794504E-05 1 -4.353589E-05
vn 2.794504E-05 1 -4.353589E-05
vn 2.794504E-05 1 -4.353589E-05
vn 2.794504E-05 1 -4.353589E-05
vn 0 1 0
vn 0 1 0
vn 0 1 0
vn 0 1 0
vn 0 1 0
vn 0 1 0
vn 0 1 0
vn 0 1 0
vn 1.290348E-05 1 -0.0001521534
vn 1.290348E-05 1 -0.0001521534
vn 1.290348E-05 1 -0.0001521534
vn 1.290348E-05 1 -0.0001521534
vn 1.290348E-05 1 -0.0001521534
vn 1.290348E-05 1 -0.0001521534
vn 1.290348E-05 1 -0.0001521534
vn 1.290348E-05 1 -0.0001521534
vn 1.290348E-05 1 -0.0001521534
vn 1.290348E-05 1 -0.0001521534
vn 0 -1 -1.582291E-05
vn 0 -1 -1.582291E-05
vn 0 -1 -1.582291E-05
vn 0 -1 -1.582291E-05
vn 0 -1 -1.582291E-05
vn 0 -1 -1.582291E-05
vn 0 -1 -1.582291E-05
vn 0 -1 -1.582291E-05
vn -2.958028E-05 -1 2.947265E-05
vn -2.958028E-05 -1 2.947265E-05
vn -2.958028E-05 -1 2.947265E-05
vn -2.958028E-05 -1 2.947265E-05
vn -2.958028E-05 -1 2.947265E-05
vn -2.958028E-05 -1 2.947265E-05
vn -2.958028E-05 -1 2.947265E-05
vn -2.958028E-05 -1 2.947265E-05
vn -2.958028E-05 -1 2.947265E-05
vn -2.958028E-05 -1 2.947265E-05
vn 0.008441526 -0.6066146 0.7949513
vn 0.0003437931 -0.7800592 -0.6257057
vn 0.0003629051 -0.7479947 -0.6637046
vn 0.008021091 -0.655193 0.7554189
vn 0 -1 -1.556383E-05
vn 0 -1 -1.556383E-05
vn 0 -1 -1.556383E-05
vn 0 -1 -1.556383E-05
vn 0 -1 -1.556383E-05
vn 0 -1 -1.556383E-05
vn 0 -1 -1.556383E-05
vn 0 -1 -1.556383E-05
vn -1.305594E-05 -1 0.0001395449
vn -1.305594E-05 -1 0.0001395449
vn -1.305594E-05 -1 0.0001395449
vn -1.305594E-05 -1 0.0001395449
vn -1.305594E-05 -1 0.0001395449
vn -1.305594E-05 -1 0.0001395449
vn -1.305594E-05 -1 0.0001395449
vn -1.305594E-05 -1 0.0001395449
vn -1.305594E-05 -1 0.0001395449
vn -1.305594E-05 -1 0.0001395449
vn 0.06694143 -0.6738339 0.7358443
vn 0.0003344099 -0.7539134 -0.6569737
vn 0.000346815 -0.7329352 -0.6802983
vn 0.06851286 -0.654422 0.7530192
vn -0.08151463 -0.00140545 -0.9966711
vn -0.2459406 -0.001364556 -0.9692839
vn -0.2459406 -0.001364556 -0.9692839
vn -0.08155604 -0.001405445 -0.9966678
vn 0.08513572 -0.001407297 -0.9963684
vn 0.08513572 -0.001407297 -0.9963684
vn 0.6999844 -0.0003130758 -0.7141581
vn 0.8999497 -0.0005888066 -0.4359935
vn 0.8999497 -0.0005888066 -0.4359935
vn 0.6999662 -0.0003130536 -0.7141758
vn -0.003426815 0 -0.9999942
vn -0.003426814 0 -0.9999942
vn -0.7257913 -0.000265731 -0.6879149
vn -0.7257717 -0.0002657118 -0.6879356
vn -0.9270313 -0.0004940781 -0.3749836
vn -0.9270313 -0.0004940781 -0.3749836
vn 0.9755507 -0.0006010293 -0.2197739
vn 0.9755507 -0.0006010293 -0.2197739
vn 0.9755507 -0.0006010293 -0.2197739
vn 0.9755507 -0.0006010293 -0.2197739
vn -0.5505325 0.0003133362 0.8348137
vn -0.9209319 0.0005217693 0.3897231
vn -0.9209319 0.0005217693 0.3897231
vn -0.5504363 0.0003132819 0.8348771
vn 0.0001734374 0 1
vn 0.0001734374 0 1
vn 0.7319716 -6.848877E-05 0.6813351
vn 0.7318282 -6.847551E-05 0.6814891
vn 0.997133 -9.275185E-05 -0.07566834
vn 0.997133 -9.275185E-05 -0.07566834
vn 0.9969736 -0.0001110545 -0.07774105
vn 0.9969736 -0.0001110545 -0.07774105
vn 0.7325394 -8.144764E-05 0.6807246
vn 0.7326791 -8.146324E-05 0.6805743
vn 0.0001734374 0 1
vn 0.0001734374 0 1
vn -0.5501763 0.0003174127 0.8350485
vn -0.5502698 0.000317466 0.8349869
vn -0.9206868 0.0005279346 0.3903019
vn -0.9206868 0.0005279346 0.3903019
vn -0.9936214 -0.0002867223 -0.1127673
vn -0.9936214 -0.0002867223 -0.1127673
vn -0.9936214 -0.0002867223 -0.1127673
vn -0.9936214 -0.0002867223 -0.1127673
vn -0.9277266 -0.0005186448 -0.3732601
vn -0.9277266 -0.0005186448 -0.3732601
vn -0.7264102 -0.0002786071 -0.6872613
vn -0.7264303 -0.0002786278 -0.6872401
vn -0.003426815 0 -0.9999942
vn -0.003426814 0 -0.9999942
vn 0.6998858 -0.0003108089 -0.7142547
vn 0.6999043 -0.0003108314 -0.7142365
vn 0.8998517 -0.0005853547 -0.4361954
vn 0.8998517 -0.0005853547 -0.4361954
vn -0.9676909 -0.0004254184 -0.2521389
vn -0.8032315 -0.0008223902 -0.5956665
vn -0.8032315 -0.0008223902 -0.5956665
vn -0.9676996 -0.0004253788 -0.2521054
vn -0.9458019 4.057112E-05 0.3247445
vn -0.94581 4.057031E-05 0.3247207
vn -0.6439719 5.132373E-05 0.7650492
vn -0.6439741 5.132372E-05 0.7650474
vn 0.02650763 4.281008E-05 0.9996487
vn 0.02657834 4.280801E-05 0.9996468
vn 0.7082414 1.094726E-05 0.7059703
vn 0.7082416 1.094725E-05 0.7059702
vn 0.9520116 -1.328432E-05 0.3060618
vn 0.9520097 -1.3284E-05 0.3060679
vn 0.9785029 -0.0004556612 -0.206233
vn 0.9785098 -0.0004556278 -0.2061997
vn 0.8103901 -0.0008145148 -0.5858901
vn 0.8103901 -0.0008145148 -0.5858901
vn 0.0003665945 0.7292859 -0.684209
vn 0.000346815 -0.7329352 -0.6802983
vn 0.0003344099 -0.7539134 -0.6569737
vn 0.0003547522 0.7503995 -0.6609845
vn 0.06695996 0.6777491 0.732238
vn 0.06853036 0.6584355 0.7495107
vn 0.06851286 -0.654422 0.7530192
vn 0.06694143 -0.6738339 0.7358443
vn -0.06275349 -0.001382432 -0.9980281
vn -0.06275349 -0.001382432 -0.9980281
vn -0.01719002 -0.001385094 -0.9998512
vn -0.01718859 -0.001385094 -0.9998513
vn 0.0284104 -0.001384876 -0.9995955
vn 0.0284104 -0.001384876 -0.9995955
vn 0.6646423 -0.001063559 -0.747161
vn 0.6646423 -0.001063559 -0.747161
vn 0.9502665 -0.000604319 -0.3114373
vn 0.9503245 -0.0006041188 -0.3112604
vn 0.9520078 3.42863E-05 0.3060738
vn 0.9520136 3.428347E-05 0.3060558
vn 0.70798 9.831566E-05 0.7062324
vn 0.7080183 9.830933E-05 0.7061942
vn 0.02540354 0.000151784 0.9996773
vn 0.02541156 0.0001517839 0.9996771
vn -0.6442371 0.0001246968 0.7648259
vn -0.6442654 0.0001246935 0.764802
vn -0.9456607 6.167107E-05 0.3251551
vn -0.9456723 6.166608E-05 0.3251213
vn -0.9540495 -0.000499006 -0.2996487
vn -0.9540628 -0.0004989542 -0.2996061
vn -0.7405213 -0.0009382792 -0.6720322
vn -0.7405213 -0.0009382792 -0.6720322
vn 0.930126 -0.0009820902 -0.3672393
vn 0.930126 -0.0009820902 -0.3672393
vn 0.930126 -0.0009820902 -0.3672393
vn 0.930126 -0.0009820902 -0.3672393
vn -0.9819396 -0.0005364981 -0.1891936
vn -0.9819396 -0.0005364981 -0.1891936
vn -0.9819396 -0.0005364981 -0.1891936
vn -0.9819396 -0.0005364981 -0.1891936
vn 0.0003317667 0.7443729 -0.667764
vn 0.0003629051 -0.7479947 -0.6637046
vn 0.0003437931 -0.7800592 -0.6257057
vn 0.0003113241 0.7766261 -0.6299618
vn 0.008416093 0.6109458 0.7916277
vn 0.007993705 0.6593002 0.7518374
vn 0.008021091 -0.655193 0.7554189
vn 0.008441526 -0.6066146 0.7949513
g Body_05.019_0
f 3/3/3 2/2/2 1/1/1
f 1/1/1 4/4/4 3/3/3
f 4/4/4 5/5/5 3/3/3
f 4/4/4 6/6/6 5/5/5
f 6/6/6 7/7/7 5/5/5
f 5/5/5 7/7/7 8/8/8
f 11/11/11 10/10/10 9/9/9
f 9/9/9 12/12/12 11/11/11
f 9/9/9 13/13/13 12/12/12
f 13/13/13 14/14/14 12/12/12
f 13/13/13 15/15/15 14/14/14
f 15/15/15 16/16/16 14/14/14
f 15/15/15 17/17/17 16/16/16
f 17/17/17 18/18/18 16/16/16
f 21/21/21 20/20/20 19/19/19
f 19/19/19 22/22/22 21/21/21
f 22/22/22 23/23/23 21/21/21
f 22/22/22 24/24/24 23/23/23
f 24/24/24 25/25/25 23/23/23
f 23/23/23 25/25/25 26/26/26
f 29/29/29 28/28/28 27/27/27
f 27/27/27 30/30/30 29/29/29
f 31/31/31 29/29/29 30/30/30
f 27/27/27 32/32/32 30/30/30
f 27/27/27 33/33/33 32/32/32
f 33/33/33 34/34/34 32/32/32
f 33/33/33 35/35/35 34/34/34
f 35/35/35 36/36/36 34/34/34
f 39/39/39 38/38/38 37/37/37
f 38/38/38 39/39/39 40/40/40
f 38/38/38 40/40/40 41/41/41
f 42/42/42 38/38/38 41/41/41
f 42/42/42 41/41/41 43/43/43
f 43/43/43 44/44/44 42/42/42
f 47/47/47 46/46/46 45/45/45
f 45/45/45 48/48/48 47/47/47
f 48/48/48 49/49/49 47/47/47
f 48/48/48 50/50/50 49/49/49
f 50/50/50 51/51/51 49/49/49
f 50/50/50 52/52/52 51/51/51
f 52/52/52 53/53/53 51/51/51
f 52/52/52 54/54/54 53/53/53
f 57/57/57 56/56/56 55/55/55
f 58/58/58 57/57/57 55/55/55
f 61/61/61 60/60/60 59/59/59
f 60/60/60 61/61/61 62/62/62
f 60/60/60 62/62/62 63/63/63
f 64/64/64 60/60/60 63/63/63
f 64/64/64 63/63/63 65/65/65
f 65/65/65 66/66/66 64/64/64
f 69/69/69 68/68/68 67/67/67
f 69/69/69 67/67/67 70/70/70
f 70/70/70 71/71/71 69/69/69
f 67/67/67 72/72/72 70/70/70
f 72/72/72 73/73/73 70/70/70
f 72/72/72 74/74/74 73/73/73
f 74/74/74 75/75/75 73/73/73
f 74/74/74 76/76/76 75/75/75
f 79/79/79 78/78/78 77/77/77
f 80/80/80 79/79/79 77/77/77
f 83/83/83 82/82/82 81/81/81
f 82/82/82 84/84/84 81/81/81
f 81/81/81 84/84/84 85/85/85
f 84/84/84 86/86/86 85/85/85
f 89/89/89 88/88/88 87/87/87
f 88/88/88 90/90/90 87/87/87
f 87/87/87 90/90/90 91/91/91
f 90/90/90 92/92/92 91/91/91
f 91/91/91 92/92/92 93/93/93
f 92/92/92 94/94/94 93/93/93
f 93/93/93 94/94/94 95/95/95
f 94/94/94 96/96/96 95/95/95
f 99/99/99 98/98/98 97/97/97
f 100/100/100 99/99/99 97/97/97
f 103/103/103 102/102/102 101/101/101
f 102/102/102 104/104/104 101/101/101
f 101/101/101 104/104/104 105/105/105
f 104/104/104 106/106/106 105/105/105
f 105/105/105 106/106/106 107/107/107
f 106/106/106 108/108/108 107/107/107
f 107/107/107 108/108/108 109/109/109
f 108/108/108 110/110/110 109/109/109
f 113/113/113 112/112/112 111/111/111
f 114/114/114 113/113/113 111/111/111
f 115/115/115 113/113/113 114/114/114
f 116/116/116 115/115/115 114/114/114
f 117/117/117 115/115/115 116/116/116
f 118/118/118 117/117/117 116/116/116
f 119/119/119 117/117/117 118/118/118
f 120/120/120 119/119/119 118/118/118
f 123/123/123 122/122/122 121/121/121
f 124/124/124 123/123/123 121/121/121
f 127/127/127 126/126/126 125/125/125
f 128/128/128 127/127/127 125/125/125
f 129/129/129 127/127/127 128/128/128
f 130/130/130 129/129/129 128/128/128
f 131/131/131 129/129/129 130/130/130
f 132/132/132 131/131/131 130/130/130
f 133/133/133 131/131/131 132/132/132
f 134/134/134 133/133/133 132/132/132
f 137/137/137 136/136/136 135/135/135
f 136/136/136 138/138/138 135/135/135
f 135/135/135 138/138/138 139/139/139
f 138/138/138 140/140/140 139/139/139
f 139/139/139 140/140/140 141/141/141
f 140/140/140 142/142/142 141/141/141
f 141/141/141 142/142/142 143/143/143
f 142/142/142 144/144/144 143/143/143
f 143/143/143 144/144/144 145/145/145
f 144/144/144 146/146/146 145/145/145
f 145/145/145 146/146/146 147/147/147
f 146/146/146 148/148/148 147/147/147
f 147/147/147 148/148/148 149/149/149
f 148/148/148 150/150/150 149/149/149
f 149/149/149 150/150/150 151/151/151
f 150/150/150 152/152/152 151/151/151
f 155/155/155 154/154/154 153/153/153
f 156/156/156 155/155/155 153/153/153
f 156/156/156 153/153/153 157/157/157
f 153/153/153 158/158/158 157/157/157
f 158/158/158 159/159/159 157/157/157
f 159/159/159 160/160/160 157/157/157
f 163/163/163 162/162/162 161/161/161
f 164/164/164 163/163/163 161/161/161
f 165/165/165 163/163/163 164/164/164
f 166/166/166 165/165/165 164/164/164
f 169/169/169 168/168/168 167/167/167
f 170/170/170 169/169/169 167/167/167
f 171/171/171 169/169/169 170/170/170
f 172/172/172 171/171/171 170/170/170
f 173/173/173 171/171/171 172/172/172
f 174/174/174 173/173/173 172/172/172
f 175/175/175 173/173/173 174/174/174
f 176/176/176 175/175/175 174/174/174
f 177/177/177 175/175/175 176/176/176
f 178/178/178 177/177/177 176/176/176
f 179/179/179 177/177/177 178/178/178
f 180/180/180 179/179/179 178/178/178
f 181/181/181 179/179/179 180/180/180
f 182/182/182 181/181/181 180/180/180
f 183/183/183 181/181/181 182/182/182
f 184/184/184 183/183/183 182/182/182
f 187/187/187 186/186/186 185/185/185
f 188/188/188 187/187/187 185/185/185
f 191/191/191 190/190/190 189/189/189
f 192/192/192 191/191/191 189/189/189
f 195/195/195 194/194/194 193/193/193
f 196/196/196 195/195/195 193/193/193
f 196/196/196 193/193/193 197/197/197
f 193/193/193 198/198/198 197/197/197
f 198/198/198 199/199/199 197/197/197
f 199/199/199 200/200/200 197/197/197
