g Cube.060
v 1.50003 5 7.92034
v -1.499968 5 12.17138
v -1.49997 5 7.920341
v 1.500032 5 12.17137
v 1.947725 4.995021 12.56506
v -1.947648 4.995021 12.56506
v 2.269779 4.995021 13.00833
v -2.269702 4.995021 13.00833
v 2.492635 4.995021 13.50887
v -2.492557 4.995021 13.50887
v 2.606552 4.995021 14.04481
v -2.606474 4.995021 14.04481
v 2.606552 4.995021 14.59272
v -2.606474 4.995021 14.59272
v 2.492636 4.995021 15.12865
v -2.492557 4.995021 15.12866
v 2.269781 4.995021 15.6292
v -2.269701 4.995021 15.6292
v 1.947728 4.995021 16.07247
v -1.947647 4.995021 16.07247
v 1.540552 4.995021 16.43909
v -1.540469 4.995021 16.43909
v 1.066048 4.995021 16.71305
v -1.065964 4.995021 16.71305
v -0.5448698 4.995021 16.88236
v 0.5449545 4.995021 16.88236
v 3.985959E-05 4.995021 16.93963
vt 0.1305116 -0.2486857
vt 0.1305116 0.2750798
vt 0.1305116 -0.2486857
vt 0.1305116 0.2750798
vt 0.1305212 0.3235852
vt 0.1305212 0.3235852
vt 0.1305212 0.3782029
vt 0.1305212 0.3782029
vt 0.1305212 0.4398671
vt 0.1305212 0.4398671
vt 0.1305212 0.5059022
vt 0.1305212 0.5059022
vt 0.1305212 0.5734081
vt 0.1305212 0.5734081
vt 0.1305212 0.6394432
vt 0.1305212 0.6394432
vt 0.1305212 0.7011158
vt 0.1305212 0.7011158
vt 0.1305212 0.7557293
vt 0.1305212 0.7557293
vt 0.1305212 0.8008996
vt 0.1305212 0.8008996
vt 0.1305212 0.8346568
vt 0.1305212 0.8346568
vt 0.1305212 0.8555216
vt 0.1305212 0.8555216
vt 0.1305212 0.8625722
vn 0 1 0
vn 0 1 0
vn 0 1 0
vn 0 1 0
vn 0 0.9999996 0.0008381059
vn 0 0.9999996 0.0008381059
vn 0 0.9999996 0.0008381059
vn 0 0.9999996 0.0008381059
vn 0 0.9999996 0.0008381059
vn 0 0.9999996 0.0008381059
vn 0 0.9999996 0.0008381059
vn 0 0.9999996 0.0008381059
vn 0 0.9999996 0.0008381059
vn 0 0.9999996 0.0008381059
vn 0 0.9999996 0.0008381059
vn 0 0.9999996 0.0008381059
vn 0 0.9999996 0.0008381059
vn 0 0.9999996 0.0008381059
vn 0 0.9999996 0.0008381059
vn 0 0.9999996 0.0008381059
vn 0 0.9999996 0.0008381059
vn 0 0.9999996 0.0008381059
vn 0 0.9999996 0.0008381059
vn 0 0.9999996 0.0008381059
vn 0 0.9999996 0.0008381059
vn 0 0.9999996 0.0008381059
vn 0 0.9999996 0.0008381059
g Cube.060_0
f 3/3/3 2/2/2 1/1/1
f 2/2/2 4/4/4 1/1/1
f 5/5/5 4/4/4 2/2/2
f 2/2/2 6/6/6 5/5/5
f 6/6/6 7/7/7 5/5/5
f 6/6/6 8/8/8 7/7/7
f 8/8/8 9/9/9 7/7/7
f 8/8/8 10/10/10 9/9/9
f 10/10/10 11/11/11 9/9/9
f 10/10/10 12/12/12 11/11/11
f 12/12/12 13/13/13 11/11/11
f 12/12/12 14/14/14 13/13/13
f 14/14/14 15/15/15 13/13/13
f 14/14/14 16/16/16 15/15/15
f 16/16/16 17/17/17 15/15/15
f 16/16/16 18/18/18 17/17/17
f 18/18/18 19/19/19 17/17/17
f 18/18/18 20/20/20 19/19/19
f 20/20/20 21/21/21 19/19/19
f 20/20/20 22/22/22 21/21/21
f 22/22/22 23/23/23 21/21/21
f 22/22/22 24/24/24 23/23/23
f 24/24/24 25/25/25 23/23/23
f 25/25/25 26/26/26 23/23/23
f 25/25/25 27/27/27 26/26/26
