g Cube.059
v -1.505068 4.539703 8.928416
v -1.49997 4.53305 7.920341
v -1.499968 4.53305 12.17138
v -1.804298 4.546356 9.047111
v -2.899708 4.546356 9.949154
v -1.947648 4.532921 12.56506
v -3.765141 4.546227 10.71021
v -2.269702 4.532921 13.00833
v -4.387722 4.546227 11.56711
v -2.492557 4.532921 13.50887
v -4.818535 4.546227 12.53474
v -2.606474 4.532921 14.04481
v -5.038754 4.546227 13.57079
v -2.606474 4.532921 14.59272
v -5.038754 4.546227 14.62999
v -2.492557 4.532921 15.12866
v -4.818534 4.546227 15.66604
v -2.269701 4.532921 15.6292
v -4.38772 4.546227 16.63367
v -1.947647 4.532921 16.07247
v -3.765139 4.546227 17.49057
v -1.540469 4.532921 16.43909
v -2.978002 4.546227 18.19931
v -1.065964 4.532921 16.71305
v -2.06071 4.546227 18.72891
v -0.5448698 4.532921 16.88236
v -1.053354 4.546227 19.05622
v 3.985959E-05 4.532921 16.93963
v 4.026019E-05 4.546227 19.16694
v 0.5449545 4.532921 16.88236
v 1.053445 4.546227 19.05622
v 1.066048 4.532921 16.71305
v 2.060799 4.546227 18.72891
v 1.540552 4.532921 16.43909
v 2.978088 4.546227 18.19931
v 1.947728 4.532921 16.07247
v 3.765223 4.546227 17.49056
v 2.269781 4.532921 15.6292
v 4.387801 4.546227 16.63366
v 2.492636 4.532921 15.12865
v 4.818614 4.546227 15.66603
v 2.606552 4.532921 14.59272
v 5.038831 4.546227 14.62998
v 2.606552 4.532921 14.04481
v 5.038831 4.546227 13.57079
v 2.492635 4.532921 13.50887
v 4.818612 4.546227 12.53473
v 2.269779 4.532921 13.00833
v 4.387797 4.546227 11.56711
v 1.947725 4.532921 12.56506
v 3.765217 4.546227 10.7102
v 1.500032 4.53305 12.17137
v 2.899756 4.546356 9.949152
v 1.804346 4.546356 9.047109
v 1.511488 4.539703 8.928414
v 1.50003 4.53305 7.92034
vt 0.06786384 0.3254307
vt 0.06786384 0.3254307
vt 0.06786384 0.6090344
vt 0.06786384 0.3254307
vt 0.06786384 0.6090344
vt 0.06786396 0.6352986
vt 0.06786396 0.6352986
vt 0.06786396 0.6648739
vt 0.06786396 0.6648739
vt 0.06786396 0.6982639
vt 0.06786396 0.6982639
vt 0.06786396 0.7340191
vt 0.06786396 0.7340191
vt 0.06786396 0.7705715
vt 0.06786396 0.7705715
vt 0.06786396 0.8063267
vt 0.06786396 0.8063267
vt 0.06786396 0.8397205
vt 0.06786396 0.8397205
vt 0.06786396 0.8692921
vt 0.06786396 0.8692921
vt 0.06786396 0.8937519
vt 0.06786396 0.8937519
vt 0.06786396 0.9120281
vt 0.06786396 0.9120281
vt 0.06786396 0.9233235
vt 0.06786396 0.9233235
vt 0.06786396 0.9271458
vt 0.06786396 0.9271458
vt 0.06786396 0.9233235
vt 0.06786396 0.9233235
vt 0.06786396 0.9120281
vt 0.06786396 0.9120281
vt 0.06786396 0.8937519
vt 0.06786396 0.8937519
vt 0.06786396 0.8692921
vt 0.06786396 0.8692921
vt 0.06786396 0.8397205
vt 0.06786396 0.8397205
vt 0.06786396 0.8063267
vt 0.06786396 0.8063267
vt 0.06786396 0.7705715
vt 0.06786396 0.7705715
vt 0.06786396 0.7340191
vt 0.06786396 0.7340191
vt 0.06786396 0.6982639
vt 0.06786396 0.6982639
vt 0.06786396 0.6648739
vt 0.06786396 0.6648739
vt 0.06786396 0.6352986
vt 0.06786396 0.6352986
vt 0.06786384 0.6090344
vt 0.06786384 0.6090344
vt 0.06786384 0.3254307
vt 0.06786384 0.3254307
vt 0.06786384 0.3254307
vn 0.01335901 0.9999045 0.0035252
vn 0.01335901 0.9999045 0.0035252
vn 0.01335901 0.9999045 0.0035252
vn 0.01335901 0.9999045 0.0035252
vn 0.01335901 0.9999045 0.0035252
vn 0.004204459 0.9999865 0.003054444
vn 0.004204459 0.9999865 0.003054444
vn 0.004204459 0.9999865 0.003054444
vn 0.004204459 0.9999865 0.003054444
vn 0.004821875 0.9999861 0.002146763
vn 0.004821875 0.9999861 0.002146763
vn 0.005253162 0.9999856 0.001116593
vn 0.005253162 0.9999856 0.001116593
vn 0.005470759 0.9999851 0
vn 0.005470759 0.9999851 0
vn 0.005453005 0.9999845 -0.001159071
vn 0.005453005 0.9999845 -0.001159071
vn 0.004672532 0.9999833 -0.003394773
vn 0.004672532 0.9999833 -0.003394773
vn 0.004672532 0.9999833 -0.003394773
vn 0.004672532 0.9999833 -0.003394773
vn 0.003922325 0.9999828 -0.004356209
vn 0.003922325 0.9999828 -0.004356209
vn 0.002965994 0.9999825 -0.005137247
vn 0.002965994 0.9999825 -0.005137247
vn 0.001847942 0.9999821 -0.005688729
vn 0.001847942 0.9999821 -0.005688729
vn -0.0006288282 0.999982 -0.00597393
vn -0.0006288282 0.999982 -0.00597393
vn -0.0006288282 0.999982 -0.00597393
vn -0.0006288282 0.999982 -0.00597393
vn -0.001847946 0.9999821 -0.00568873
vn -0.001847946 0.9999821 -0.00568873
vn -0.002966124 0.9999825 -0.005137233
vn -0.002966124 0.9999825 -0.005137233
vn -0.004672417 0.9999833 -0.003394769
vn -0.004672417 0.9999833 -0.003394769
vn -0.004672417 0.9999833 -0.003394769
vn -0.004672417 0.9999833 -0.003394769
vn -0.005187373 0.9999839 -0.002309483
vn -0.005187373 0.9999839 -0.002309483
vn -0.005453262 0.9999845 -0.001159061
vn -0.005453262 0.9999845 -0.001159061
vn -0.005470764 0.9999851 0
vn -0.005470764 0.9999851 0
vn -0.005253403 0.9999856 0.001116593
vn -0.005253403 0.9999856 0.001116593
vn -0.004204229 0.9999865 0.003054447
vn -0.004204229 0.9999865 0.003054447
vn -0.004204229 0.9999865 0.003054447
vn -0.004204229 0.9999865 0.003054447
vn -0.01333838 0.9999049 0.003501837
vn -0.01333838 0.9999049 0.003501837
vn -0.01333838 0.9999049 0.003501837
vn -0.01333838 0.9999049 0.003501837
vn -0.01333838 0.9999049 0.003501837
g Cube.059_0
f 3/3/3 2/2/2 1/1/1
f 1/1/1 4/4/4 3/3/3
f 4/4/4 5/5/5 3/3/3
f 3/3/3 5/5/5 6/6/6
f 5/5/5 7/7/7 6/6/6
f 6/6/6 7/7/7 8/8/8
f 7/7/7 9/9/9 8/8/8
f 8/8/8 9/9/9 10/10/10
f 9/9/9 11/11/11 10/10/10
f 10/10/10 11/11/11 12/12/12
f 11/11/11 13/13/13 12/12/12
f 12/12/12 13/13/13 14/14/14
f 13/13/13 15/15/15 14/14/14
f 14/14/14 15/15/15 16/16/16
f 15/15/15 17/17/17 16/16/16
f 16/16/16 17/17/17 18/18/18
f 17/17/17 19/19/19 18/18/18
f 18/18/18 19/19/19 20/20/20
f 19/19/19 21/21/21 20/20/20
f 20/20/20 21/21/21 22/22/22
f 21/21/21 23/23/23 22/22/22
f 22/22/22 23/23/23 24/24/24
f 23/23/23 25/25/25 24/24/24
f 24/24/24 25/25/25 26/26/26
f 25/25/25 27/27/27 26/26/26
f 26/26/26 27/27/27 28/28/28
f 27/27/27 29/29/29 28/28/28
f 28/28/28 29/29/29 30/30/30
f 29/29/29 31/31/31 30/30/30
f 30/30/30 31/31/31 32/32/32
f 31/31/31 33/33/33 32/32/32
f 32/32/32 33/33/33 34/34/34
f 33/33/33 35/35/35 34/34/34
f 34/34/34 35/35/35 36/36/36
f 35/35/35 37/37/37 36/36/36
f 36/36/36 37/37/37 38/38/38
f 37/37/37 39/39/39 38/38/38
f 38/38/38 39/39/39 40/40/40
f 39/39/39 41/41/41 40/40/40
f 40/40/40 41/41/41 42/42/42
f 41/41/41 43/43/43 42/42/42
f 42/42/42 43/43/43 44/44/44
f 43/43/43 45/45/45 44/44/44
f 44/44/44 45/45/45 46/46/46
f 45/45/45 47/47/47 46/46/46
f 46/46/46 47/47/47 48/48/48
f 47/47/47 49/49/49 48/48/48
f 48/48/48 49/49/49 50/50/50
f 49/49/49 51/51/51 50/50/50
f 50/50/50 51/51/51 52/52/52
f 51/51/51 53/53/53 52/52/52
f 52/52/52 53/53/53 54/54/54
f 52/52/52 54/54/54 55/55/55
f 55/55/55 56/56/56 52/52/52
