g Cube.056
v 1.50003 1.500404 7.92034
v 1.500029 1.500404 4.92034
v -1.499971 1.500404 4.920341
v -1.49997 1.500404 7.920341
v -1.49997 1.500404 7.920341
v -1.499971 1.500404 4.920341
v -1.499971 5 4.920341
v -1.49997 5 7.920341
v 1.500029 1.500404 4.92034
v 1.50003 1.500404 7.92034
v 1.50003 5 7.92034
v 1.500029 5 4.92034
v -1.499971 1.500404 4.920341
v 1.500029 1.500404 4.92034
v 1.500029 5 4.92034
v -1.499971 5 4.920341
vt 0.9661536 0.8839354
vt 0.9661536 0.5625011
vt 0.9661536 0.5625011
vt 0.9661536 0.8839354
vt 0.1608267 0.7351165
vt 0.1608267 0.4136823
vt 0.1547757 0.4136822
vt 0.1547757 0.7351165
vt 0.1608267 0.4136823
vt 0.1608267 0.7351165
vt 0.1547757 0.7351165
vt 0.1547757 0.4136822
vt 0.1608267 0.4136823
vt 0.1608267 0.4136823
vt 0.1547757 0.4136822
vt 0.1549762 0.4136822
vn 0 -1 0
vn 0 -1 0
vn 0 -1 0
vn 0 -1 0
vn -1 0 0
vn -1 0 0
vn -1 0 0
vn -1 0 0
vn 1 0 0
vn 1 0 0
vn 1 0 0
vn 1 0 0
vn 0 0 -1
vn 0 0 -1
vn 0 0 -1
vn 0 0 -1
g Cube.056_0
f 3/3/3 2/2/2 1/1/1
f 4/4/4 3/3/3 1/1/1
f 7/7/7 6/6/6 5/5/5
f 8/8/8 7/7/7 5/5/5
f 11/11/11 10/10/10 9/9/9
f 12/12/12 11/11/11 9/9/9
f 15/15/15 14/14/14 13/13/13
f 16/16/16 15/15/15 13/13/13
