g Cube.052
v 1.75003 0.5004036 7.000001
v 1.750029 0.5004036 3.999998
v -1.749971 0.5004036 3.999999
v -1.74997 0.5004036 7.000002
v -1.74997 0.5004036 7.000002
v -1.749971 0.5004036 3.999999
v -1.749971 4 3.999999
v -1.74997 4 7.000002
v 1.750029 0.5004036 3.999998
v 1.75003 0.5004036 7.000001
v 1.75003 4 7.000001
v 1.750029 4 3.999998
v -1.749971 0.5004036 3.999999
v 1.750029 0.5004036 3.999998
v 1.750029 4 3.999998
v -1.749971 4 3.999999
v 1.75003 0.5004036 7.000001
v -1.74997 0.5004036 7.000002
v -1.74997 4 7.000002
v 1.75003 4 7.000001
vt 0.4488792 0.2480931
vt 0.4488792 0.5695274
vt 0.4488792 0.5695274
vt 0.4488792 0.2480931
vt 0.1548156 0.4449558
vt 0.1548156 0.7663901
vt 0.1608666 0.7663901
vt 0.1608666 0.4449559
vt 0.1548156 0.7663901
vt 0.1548156 0.4449558
vt 0.1608666 0.4449559
vt 0.1608666 0.7663901
vt 0.1548156 0.7663901
vt 0.1548156 0.7663901
vt 0.1608666 0.7663901
vt 0.1606661 0.7663901
vt 0.1548156 0.4449558
vt 0.1548156 0.4449558
vt 0.1608666 0.4449559
vt 0.1606661 0.4449559
vn 0 -1 0
vn 0 -1 0
vn 0 -1 0
vn 0 -1 0
vn -1 0 0
vn -1 0 0
vn -1 0 0
vn -1 0 0
vn 1 0 0
vn 1 0 0
vn 1 0 0
vn 1 0 0
vn 0 0 -1
vn 0 0 -1
vn 0 0 -1
vn 0 0 -1
vn 0 0 1
vn 0 0 1
vn 0 0 1
vn 0 0 1
g Cube.052_0
f 3/3/3 2/2/2 1/1/1
f 4/4/4 3/3/3 1/1/1
f 7/7/7 6/6/6 5/5/5
f 8/8/8 7/7/7 5/5/5
f 11/11/11 10/10/10 9/9/9
f 12/12/12 11/11/11 9/9/9
f 15/15/15 14/14/14 13/13/13
f 16/16/16 15/15/15 13/13/13
f 19/19/19 18/18/18 17/17/17
f 20/20/20 19/19/19 17/17/17
