g Cube.043
v -0.4869202 0.1739931 0.4572184
v -0.4700815 0.1629976 0.4670225
v -0.4614763 0.1573786 0.4568538
v 0.4614775 0.1573786 0.4568538
v 0.4700827 0.1629976 0.4670225
v 0.4869214 0.1739931 0.4572184
v -0.4610624 0.1739931 0.4869208
v -0.4700815 0.1629976 0.4670225
v -0.4793466 0.1739931 0.4782212
v -0.4793466 0.1739931 0.4782212
v -0.4700815 0.1629976 0.4670225
v -0.4869202 0.1739931 0.4572184
v -0.4869202 0.1739931 -0.4572184
v -0.4700815 0.1629976 -0.4670225
v -0.4793466 0.1739931 -0.4782212
v -0.4793466 0.1739931 -0.4782212
v -0.4700815 0.1629976 -0.4670225
v -0.4610624 0.1739931 -0.4869208
v 0.4610636 0.1739931 -0.4869208
v 0.4700827 0.1629976 -0.4670225
v 0.4793479 0.1739931 -0.4782212
v 0.4793479 0.1739931 -0.4782212
v 0.4700827 0.1629976 -0.4670225
v 0.4869214 0.1739931 -0.4572184
v 0.4869214 0.1739931 0.4572184
v 0.4700827 0.1629976 0.4670225
v 0.4793479 0.1739931 0.4782212
v 0.4793479 0.1739931 0.4782212
v 0.4700827 0.1629976 0.4670225
v 0.4610636 0.1739931 0.4869208
v 0.4610636 0.1739931 0.4869208
v -0.4610624 0.1739931 0.4869208
v -0.4610624 0.9999999 0.4869208
v 0.4610636 0.9999999 0.4869208
v 0.4700827 0.1629976 0.4670225
v 0.4614775 0.1573786 0.4568538
v -0.4614763 0.1573786 0.4568538
v -0.4700815 0.1629976 0.4670225
v 0.4610636 0.1739931 0.4869208
v -0.4610624 0.1739931 0.4869208
v -0.4793466 0.9999999 -0.4782212
v -0.4610624 0.9999999 -0.4869208
v 0.4610636 0.9999999 -0.4869208
v 0.4793479 0.9999999 -0.4782212
v -0.4869202 0.9999999 -0.4572184
v 0.4869214 0.9999999 -0.4572184
v -0.4869202 0.9999999 0.4572184
v 0.4869214 0.9999999 0.4572184
v -0.4793466 0.9999999 0.4782212
v 0.4793479 0.9999999 0.4782212
v -0.4610624 0.9999999 0.4869208
v 0.4610636 0.9999999 0.4869208
v 0.4869214 0.1739931 -0.4572184
v 0.4869214 0.1739931 0.4572184
v 0.4869214 0.9999999 0.4572184
v 0.4869214 0.9999999 -0.4572184
v 0.4700827 0.1629976 -0.4670225
v 0.4610636 0.1739931 -0.4869208
v -0.4610624 0.1739931 -0.4869208
v -0.4700815 0.1629976 -0.4670225
v 0.4614775 0.1573786 -0.4568538
v -0.4614763 0.1573785 -0.4568538
v -0.4614763 0.1573785 -0.4568538
v -0.4700815 0.1629976 -0.4670225
v -0.4869202 0.1739931 -0.4572184
v -0.4869202 0.1739931 0.4572184
v -0.4614763 0.1573786 0.4568538
v -0.4610624 0.1739931 -0.4869208
v 0.4610636 0.1739931 -0.4869208
v 0.4610636 0.9999999 -0.4869208
v -0.4610624 0.9999999 -0.4869208
v 0.4869214 0.1739931 -0.4572184
v 0.4700827 0.1629976 -0.4670225
v 0.4614775 0.1573786 -0.4568538
v 0.4869214 0.1739931 0.4572184
v 0.4614775 0.1573786 0.4568538
v 0.4869214 0.1739931 0.4572184
v 0.4793479 0.1739931 0.4782212
v 0.4793479 0.9999999 0.4782212
v 0.4869214 0.9999999 0.4572184
v 0.4793479 0.1739931 0.4782212
v 0.4610636 0.1739931 0.4869208
v 0.4610636 0.9999999 0.4869208
v 0.4793479 0.9999999 0.4782212
v -0.4869202 0.9999999 0.4572184
v -0.4793466 0.9999999 0.4782212
v -0.4793466 0.1739931 0.4782212
v -0.4869202 0.1739931 0.4572184
v -0.4793466 0.9999999 0.4782212
v -0.4610624 0.9999999 0.4869208
v -0.4610624 0.1739931 0.4869208
v -0.4793466 0.1739931 0.4782212
v -0.4610624 0.9999999 -0.4869208
v -0.4793466 0.9999999 -0.4782212
v -0.4793466 0.1739931 -0.4782212
v -0.4610624 0.1739931 -0.4869208
v -0.4793466 0.9999999 -0.4782212
v -0.4869202 0.9999999 -0.4572184
v -0.4869202 0.1739931 -0.4572184
v -0.4793466 0.1739931 -0.4782212
v 0.4869214 0.9999999 -0.4572184
v 0.4793479 0.9999999 -0.4782212
v 0.4793479 0.1739931 -0.4782212
v 0.4869214 0.1739931 -0.4572184
v 0.4793479 0.9999999 -0.4782212
v 0.4610636 0.9999999 -0.4869208
v 0.4610636 0.1739931 -0.4869208
v 0.4793479 0.1739931 -0.4782212
v -0.4869202 0.1739931 0.4572184
v -0.4869202 0.1739931 -0.4572184
v -0.4869202 0.9999999 -0.4572184
v -0.4869202 0.9999999 0.4572184
vt 0.2079143 0.3847969
vt 0.2079486 0.3881501
vt 0.2079661 0.3898667
vt 0.2079661 0.5737274
vt 0.2079486 0.5754402
vt 0.2079143 0.5787933
vt 0.2079143 0.3899468
vt 0.2079486 0.3881501
vt 0.2079143 0.3863057
vt 0.2079143 0.3863057
vt 0.2079486 0.3881501
vt 0.2079143 0.3847969
vt 0.2079143 0.3847969
vt 0.2079486 0.3881501
vt 0.2079143 0.3863057
vt 0.2079143 0.3863057
vt 0.2079486 0.3881501
vt 0.2079143 0.3899468
vt 0.2079143 0.5736435
vt 0.2079486 0.5754402
vt 0.2079143 0.5772865
vt 0.2079143 0.5772865
vt 0.2079486 0.5754402
vt 0.2079143 0.5787933
vt 0.2079143 0.5787933
vt 0.2079486 0.5754402
vt 0.2079143 0.5772865
vt 0.2079143 0.5772865
vt 0.2079486 0.5754402
vt 0.2079143 0.5736435
vt 0.2079143 0.5736435
vt 0.2079143 0.3899468
vt 0.2053433 0.3899468
vt 0.2053433 0.5736435
vt 0.2079486 0.5754402
vt 0.2079661 0.5737274
vt 0.2079661 0.3898667
vt 0.2079486 0.3881501
vt 0.2079143 0.5736435
vt 0.2079143 0.3899468
vt 0.1999176 0.3863057
vt 0.1999176 0.3899468
vt 0.1999176 0.5736435
vt 0.1999176 0.5772865
vt 0.1999176 0.3847969
vt 0.1999176 0.5787933
vt 0.1999176 0.3847969
vt 0.1999176 0.5787933
vt 0.1999176 0.3863057
vt 0.1999176 0.5772865
vt 0.1999176 0.3899468
vt 0.1999176 0.5736435
vt 0.2079143 0.5787933
vt 0.2079143 0.5787933
vt 0.2053433 0.5787933
vt 0.2053433 0.5787933
vt 0.2079486 0.5754402
vt 0.2079143 0.5736435
vt 0.2079143 0.3899468
vt 0.2079486 0.3881501
vt 0.2079661 0.5737274
vt 0.2079661 0.3898667
vt 0.2079661 0.3898667
vt 0.2079486 0.3881501
vt 0.2079143 0.3847969
vt 0.2079143 0.3847969
vt 0.2079661 0.3898667
vt 0.2079143 0.3899468
vt 0.2079143 0.5736435
vt 0.2053433 0.5736435
vt 0.2053433 0.3899468
vt 0.2079143 0.5787933
vt 0.2079486 0.5754402
vt 0.2079661 0.5737274
vt 0.2079143 0.5787933
vt 0.2079661 0.5737274
vt 0.2079143 0.5787933
vt 0.2079143 0.5772865
vt 0.2053433 0.5772865
vt 0.2053433 0.5787933
vt 0.2079143 0.5772865
vt 0.2079143 0.5736435
vt 0.2053433 0.5736435
vt 0.2053433 0.5772865
vt 0.2053433 0.3847969
vt 0.2053433 0.3863057
vt 0.2079143 0.3863057
vt 0.2079143 0.3847969
vt 0.2053433 0.3863057
vt 0.2053433 0.3899468
vt 0.2079143 0.3899468
vt 0.2079143 0.3863057
vt 0.2053433 0.3899468
vt 0.2053433 0.3863057
vt 0.2079143 0.3863057
vt 0.2079143 0.3899468
vt 0.2053433 0.3863057
vt 0.2053433 0.3847969
vt 0.2079143 0.3847969
vt 0.2079143 0.3863057
vt 0.2053433 0.5787933
vt 0.2053433 0.5772865
vt 0.2079143 0.5772865
vt 0.2079143 0.5787933
vt 0.2053433 0.5772865
vt 0.2053433 0.5736435
vt 0.2079143 0.5736435
vt 0.2079143 0.5772865
vt 0.2079143 0.3847969
vt 0.2079143 0.3847969
vt 0.2053433 0.3847969
vt 0.2053433 0.3847969
vn -0.5467475 -0.8372975 0
vn -0.5467475 -0.8372975 0
vn -0.5467475 -0.8372975 0
vn 0.5467455 -0.8372988 0
vn 0.5467455 -0.8372988 0
vn 0.5467455 -0.8372988 0
vn -0.2642891 -0.7884253 0.555461
vn -0.2642891 -0.7884253 0.555461
vn -0.2642891 -0.7884253 0.555461
vn -0.6209054 -0.7512298 0.2238976
vn -0.6209054 -0.7512298 0.2238976
vn -0.6209054 -0.7512298 0.2238976
vn -0.6209077 -0.7512286 -0.2238955
vn -0.6209077 -0.7512286 -0.2238955
vn -0.6209077 -0.7512286 -0.2238955
vn -0.2642881 -0.7884243 -0.5554628
vn -0.2642881 -0.7884243 -0.5554628
vn -0.2642881 -0.7884243 -0.5554628
vn 0.2642891 -0.7884253 -0.555461
vn 0.2642891 -0.7884253 -0.555461
vn 0.2642891 -0.7884253 -0.555461
vn 0.6209054 -0.7512298 -0.2238976
vn 0.6209054 -0.7512298 -0.2238976
vn 0.6209054 -0.7512298 -0.2238976
vn 0.6209055 -0.7512296 0.2238983
vn 0.6209055 -0.7512296 0.2238983
vn 0.6209055 -0.7512296 0.2238983
vn 0.2642873 -0.7884257 0.5554613
vn 0.2642873 -0.7884257 0.5554613
vn 0.2642873 -0.7884257 0.5554613
vn 0 0 1
vn 0 0 1
vn 0 0 1
vn 0 0 1
vn 0 -0.875259 0.4836544
vn 0 -0.875259 0.4836544
vn 0 -0.875259 0.4836544
vn 0 -0.875259 0.4836544
vn 0 -0.875259 0.4836544
vn 0 -0.875259 0.4836544
vn 0 1 0
vn 0 1 0
vn 0 1 0
vn 0 1 0
vn 0 1 0
vn 0 1 0
vn 0 1 0
vn 0 1 0
vn 0 1 0
vn 0 1 0
vn 0 1 0
vn 0 1 0
vn 1 0 0
vn 1 0 0
vn 1 0 0
vn 1 0 0
vn 0 -0.8752589 -0.4836548
vn 0 -0.8752589 -0.4836548
vn 0 -0.8752589 -0.4836548
vn 0 -0.8752589 -0.4836548
vn 0 -0.8752589 -0.4836548
vn 0 -0.8752589 -0.4836548
vn -0.5467475 -0.8372975 0
vn -0.5467475 -0.8372975 0
vn -0.5467475 -0.8372975 0
vn -0.5467475 -0.8372975 0
vn -0.5467475 -0.8372975 0
vn 0 0 -1
vn 0 0 -1
vn 0 0 -1
vn 0 0 -1
vn 0.5467455 -0.8372988 0
vn 0.5467455 -0.8372988 0
vn 0.5467455 -0.8372988 0
vn 0.5467455 -0.8372988 0
vn 0.5467455 -0.8372988 0
vn 0.9407077 0 0.3392183
vn 0.9407077 0 0.3392183
vn 0.9407077 0 0.3392183
vn 0.9407077 0 0.3392183
vn 0.4296451 0 0.9029979
vn 0.4296451 0 0.9029979
vn 0.4296451 0 0.9029979
vn 0.4296451 0 0.9029979
vn -0.9407082 0 0.3392168
vn -0.9407082 0 0.3392168
vn -0.9407082 0 0.3392168
vn -0.9407082 0 0.3392168
vn -0.4296451 0 0.9029979
vn -0.4296451 0 0.9029979
vn -0.4296451 0 0.9029979
vn -0.4296451 0 0.9029979
vn -0.4296451 0 -0.9029979
vn -0.4296451 0 -0.9029979
vn -0.4296451 0 -0.9029979
vn -0.4296451 0 -0.9029979
vn -0.9407082 0 -0.3392168
vn -0.9407082 0 -0.3392168
vn -0.9407082 0 -0.3392168
vn -0.9407082 0 -0.3392168
vn 0.9407077 0 -0.3392183
vn 0.9407077 0 -0.3392183
vn 0.9407077 0 -0.3392183
vn 0.9407077 0 -0.3392183
vn 0.4296451 0 -0.9029979
vn 0.4296451 0 -0.9029979
vn 0.4296451 0 -0.9029979
vn 0.4296451 0 -0.9029979
vn -1 0 0
vn -1 0 0
vn -1 0 0
vn -1 0 0
g Cube.043_0
f 3/3/3 2/2/2 1/1/1
f 6/6/6 5/5/5 4/4/4
f 9/9/9 8/8/8 7/7/7
f 12/12/12 11/11/11 10/10/10
f 15/15/15 14/14/14 13/13/13
f 18/18/18 17/17/17 16/16/16
f 21/21/21 20/20/20 19/19/19
f 24/24/24 23/23/23 22/22/22
f 27/27/27 26/26/26 25/25/25
f 30/30/30 29/29/29 28/28/28
f 33/33/33 32/32/32 31/31/31
f 34/34/34 33/33/33 31/31/31
f 37/37/37 36/36/36 35/35/35
f 35/35/35 38/38/38 37/37/37
f 35/35/35 39/39/39 38/38/38
f 39/39/39 40/40/40 38/38/38
f 43/43/43 42/42/42 41/41/41
f 41/41/41 44/44/44 43/43/43
f 41/41/41 45/45/45 44/44/44
f 45/45/45 46/46/46 44/44/44
f 45/45/45 47/47/47 46/46/46
f 47/47/47 48/48/48 46/46/46
f 47/47/47 49/49/49 48/48/48
f 49/49/49 50/50/50 48/48/48
f 49/49/49 51/51/51 50/50/50
f 51/51/51 52/52/52 50/50/50
f 55/55/55 54/54/54 53/53/53
f 56/56/56 55/55/55 53/53/53
f 59/59/59 58/58/58 57/57/57
f 57/57/57 60/60/60 59/59/59
f 57/57/57 61/61/61 60/60/60
f 61/61/61 62/62/62 60/60/60
f 65/65/65 64/64/64 63/63/63
f 63/63/63 66/66/66 65/65/65
f 63/63/63 67/67/67 66/66/66
f 70/70/70 69/69/69 68/68/68
f 71/71/71 70/70/70 68/68/68
f 74/74/74 73/73/73 72/72/72
f 72/72/72 75/75/75 74/74/74
f 75/75/75 76/76/76 74/74/74
f 79/79/79 78/78/78 77/77/77
f 80/80/80 79/79/79 77/77/77
f 83/83/83 82/82/82 81/81/81
f 84/84/84 83/83/83 81/81/81
f 87/87/87 86/86/86 85/85/85
f 88/88/88 87/87/87 85/85/85
f 91/91/91 90/90/90 89/89/89
f 92/92/92 91/91/91 89/89/89
f 95/95/95 94/94/94 93/93/93
f 96/96/96 95/95/95 93/93/93
f 99/99/99 98/98/98 97/97/97
f 100/100/100 99/99/99 97/97/97
f 103/103/103 102/102/102 101/101/101
f 104/104/104 103/103/103 101/101/101
f 107/107/107 106/106/106 105/105/105
f 108/108/108 107/107/107 105/105/105
f 111/111/111 110/110/110 109/109/109
f 112/112/112 111/111/111 109/109/109
