g Text.003
v -0.0446667 0.12 0.009333314
v 0.3003333 0.12 -0.4126667
v 0.3423334 0.12 -0.4126667
v 0.2423335 0.12 -0.2276667
v 0.2443333 0.12 -0.2276667
v 0.08633333 0.12 -0.03366667
v 0.3423334 0.12 -0.03366667
v 0.2443333 0.12 -0.03366667
v 0.4153333 0.12 -0.03366667
v 0.4153333 0.12 0.05433333
v -0.0446667 0.12 0.05433333
v 0.2443333 0.12 0.05433333
v 0.3423334 0.12 0.05433333
v 0.2443333 0.12 0.2783333
v 0.3423334 0.12 0.2783333
v -0.3666667 0.12 0.05033332
v -0.5556666 0.12 -0.1706667
v -0.4436666 0.12 -0.1706667
v -0.3106665 0.12 -0.01666668
v -0.2536666 0.12 0.05033332
v -0.5556666 0.12 0.2783333
v -0.06866664 0.12 -0.1706667
v -0.1826667 0.12 -0.1706667
v -0.3106665 0.12 0.1173333
v -0.4436666 0.12 0.2783333
v -0.05566662 0.12 0.2783333
v -0.1696667 0.12 0.2783333
v 0.3423334 -0.12 -0.4126667
v 0.3003333 -0.12 -0.4126667
v -0.0446667 -0.12 0.009333314
v 0.2423335 -0.12 -0.2276667
v 0.2443333 -0.12 -0.2276667
v 0.08633333 -0.12 -0.03366667
v 0.3423334 -0.12 -0.03366667
v 0.2443333 -0.12 -0.03366667
v 0.4153333 -0.12 -0.03366667
v 0.4153333 -0.12 0.05433333
v -0.0446667 -0.12 0.05433333
v 0.4153333 -0.12 0.05433333
v -0.0446667 -0.12 0.05433333
v 0.2443333 -0.12 0.05433333
v 0.3423334 -0.12 0.05433333
v 0.3423334 -0.12 0.05433333
v 0.2443333 -0.12 0.05433333
v 0.2443333 -0.12 0.2783333
v 0.3423334 -0.12 0.2783333
v -0.4436666 -0.12 -0.1706667
v -0.5556666 -0.12 -0.1706667
v -0.3666667 -0.12 0.05033332
v -0.3106665 -0.12 -0.01666668
v -0.2536666 -0.12 0.05033332
v -0.5556666 -0.12 0.2783333
v -0.06866664 -0.12 -0.1706667
v -0.1826667 -0.12 -0.1706667
v -0.3106665 -0.12 0.1173333
v -0.4436666 -0.12 0.2783333
v -0.05566662 -0.12 0.2783333
v -0.1696667 -0.12 0.2783333
v -0.05566662 0.12 0.2783333
v -0.05566662 -0.12 0.2783333
v -0.1696667 -0.12 0.2783333
v -0.1696667 0.12 0.2783333
v -0.3106665 -0.12 0.1173333
v -0.3106665 0.12 0.1173333
v -0.4436666 -0.12 0.2783333
v -0.4436666 0.12 0.2783333
v -0.5556666 -0.12 0.2783333
v -0.5556666 0.12 0.2783333
v -0.3666667 -0.12 0.05033332
v -0.3666667 0.12 0.05033332
v -0.5556666 -0.12 -0.1706667
v -0.5556666 0.12 -0.1706667
v -0.4436666 -0.12 -0.1706667
v -0.4436666 0.12 -0.1706667
v -0.3106665 -0.12 -0.01666668
v -0.3106665 0.12 -0.01666668
v -0.1826667 -0.12 -0.1706667
v -0.1826667 0.12 -0.1706667
v -0.06866664 -0.12 -0.1706667
v -0.06866664 0.12 -0.1706667
v -0.2536666 -0.12 0.05033332
v -0.2536666 0.12 0.05033332
v -0.05566662 -0.12 0.2783333
v -0.05566662 0.12 0.2783333
v 0.4153333 0.12 -0.03366667
v 0.4153333 -0.12 -0.03366667
v 0.4153333 -0.12 0.05433333
v 0.4153333 0.12 0.05433333
v 0.3423334 -0.12 0.05433333
v 0.3423334 0.12 0.05433333
v 0.3423334 -0.12 0.2783333
v 0.3423334 0.12 0.2783333
v 0.2443333 -0.12 0.2783333
v 0.2443333 0.12 0.2783333
v 0.2443333 -0.12 0.05433333
v 0.2443333 0.12 0.05433333
v -0.0446667 -0.12 0.05433333
v -0.0446667 0.12 0.05433333
v -0.0446667 -0.12 0.009333314
v -0.0446667 0.12 0.009333314
v 0.3003333 -0.12 -0.4126667
v 0.3003333 0.12 -0.4126667
v 0.3423334 -0.12 -0.4126667
v 0.3423334 0.12 -0.4126667
v 0.3423334 -0.12 -0.03366667
v 0.3423334 0.12 -0.03366667
v 0.4153333 -0.12 -0.03366667
v 0.4153333 0.12 -0.03366667
v 0.2443333 0.12 -0.03366667
v 0.2443333 -0.12 -0.03366667
v 0.2443333 -0.12 -0.2276667
v 0.2443333 0.12 -0.2276667
v 0.2423335 -0.12 -0.2276667
v 0.2423335 0.12 -0.2276667
v 0.08633333 -0.12 -0.03366667
v 0.08633333 0.12 -0.03366667
v 0.2443333 -0.12 -0.03366667
v 0.2443333 0.12 -0.03366667
vt 0.5 0
vt 0.5714286 0
vt 0.6428571 0
vt 0.9285714 0
vt 0.8571429 0
vt 1 0
vt 0.7142857 0
vt 0.7857143 0
vt 0 0
vt 0.07142857 0
vt 0.4285714 0
vt 0.3571429 0
vt 0.1428571 0
vt 0.2857143 0
vt 0.2142857 0
vt 0.4545455 0
vt 0.5454546 0
vt 0.6363636 0
vt 0.7272727 0
vt 1 0
vt 0.3636364 0
vt 0.9090909 0
vt 0.8181818 0
vt 0.1818182 0
vt 0.2727273 0
vt 0 0
vt 0.09090909 0
vt 0.6428571 0
vt 0.5714286 0
vt 0.5 0
vt 0.9285714 0
vt 0.8571429 0
vt 1 0
vt 0.7142857 0
vt 0.7857143 0
vt 0 0
vt 0.07142857 0
vt 0.4285714 0
vt 0.07142857 0
vt 0.4285714 0
vt 0.3571429 0
vt 0.1428571 0
vt 0.1428571 0
vt 0.3571429 0
vt 0.2857143 0
vt 0.2142857 0
vt 0.6363636 0
vt 0.5454546 0
vt 0.4545455 0
vt 0.7272727 0
vt 1 0
vt 0.3636364 0
vt 0.9090909 0
vt 0.8181818 0
vt 0.1818182 0
vt 0.2727273 0
vt 0 0
vt 0.09090909 0
vt 0 1
vt 0 0
vt 0.08333334 0
vt 0.08333334 1
vt 0.1666667 0
vt 0.1666667 1
vt 0.25 0
vt 0.25 1
vt 0.3333333 0
vt 0.3333333 1
vt 0.4166667 0
vt 0.4166667 1
vt 0.5 0
vt 0.5 1
vt 0.5833333 0
vt 0.5833333 1
vt 0.6666667 0
vt 0.6666667 1
vt 0.75 0
vt 0.75 1
vt 0.8333333 0
vt 0.8333333 1
vt 0.9166667 0
vt 0.9166667 1
vt 1 0
vt 1 1
vt 0 1
vt 0 0
vt 0.09090909 0
vt 0.09090909 1
vt 0.1818182 0
vt 0.1818182 1
vt 0.2727273 0
vt 0.2727273 1
vt 0.3636364 0
vt 0.3636364 1
vt 0.4545455 0
vt 0.4545455 1
vt 0.5454546 0
vt 0.5454546 1
vt 0.6363636 0
vt 0.6363636 1
vt 0.7272727 0
vt 0.7272727 1
vt 0.8181818 0
vt 0.8181818 1
vt 0.9090909 0
vt 0.9090909 1
vt 1 0
vt 1 1
vt 0 1
vt 0 0
vt 0.25 0
vt 0.25 1
vt 0.5 0
vt 0.5 1
vt 0.75 0
vt 0.75 1
vt 1 0
vt 1 1
vn 0 1 0
vn 0 1 0
vn 0 1 0
vn 0 1 0
vn 0 1 0
vn 0 1 0
vn 0 1 0
vn 0 1 0
vn 0 1 0
vn 0 1 0
vn 0 1 0
vn 0 1 0
vn 0 1 0
vn 0 1 0
vn 0 1 0
vn 0 1 0
vn 0 1 0
vn 0 1 0
vn 0 1 0
vn 0 1 0
vn 0 1 0
vn 0 1 0
vn 0 1 0
vn 0 1 0
vn 0 1 0
vn 0 1 0
vn 0 1 0
vn 0 -1 0
vn 0 -1 0
vn 0 -1 0
vn 0 -1 0
vn 0 -1 0
vn 0 -1 0
vn 0 -1 0
vn 0 -1 0
vn 0 -1 0
vn 0 -1 0
vn 0 -1 0
vn 0 1 0
vn 0 1 0
vn 0 1 0
vn 0 1 0
vn 0 -1 0
vn 0 -1 0
vn 0 -1 0
vn 0 -1 0
vn 0 -1 0
vn 0 -1 0
vn 0 -1 0
vn 0 -1 0
vn 0 -1 0
vn 0 -1 0
vn 0 -1 0
vn 0 -1 0
vn 0 -1 0
vn 0 -1 0
vn 0 -1 0
vn 0 -1 0
vn 0.9098589 0 0.4149177
vn 0.9098589 0 0.4149177
vn -0.4130165 0 0.9107235
vn -0.4130165 0 0.9107235
vn 0.0144104 0 0.9998962
vn 0.0144104 0 0.9998962
vn 0.4260975 0 0.9046773
vn 0.4260975 0 0.9046773
vn -0.9050385 0 0.4253298
vn -0.9050385 0 0.4253298
vn -0.9999706 0 0.007681468
vn -0.9999706 0 0.007681468
vn -0.9082789 0 -0.4183652
vn -0.9082789 0 -0.4183652
vn 0.4161609 0 -0.9092909
vn 0.4161609 0 -0.9092909
vn -0.009449579 0 -0.9999554
vn -0.009449579 0 -0.9999554
vn -0.4247347 0 -0.9053178
vn -0.4247347 0 -0.9053178
vn 0.9060599 0 -0.4231494
vn 0.9060599 0 -0.4231494
vn 0.9999589 0 -0.009065969
vn 0.9999589 0 -0.009065969
vn 0.9098589 0 0.4149177
vn 0.9098589 0 0.4149177
vn 0.7071068 0 -0.7071068
vn 0.7071068 0 -0.7071068
vn 0.7071068 0 0.7071068
vn 0.7071068 0 0.7071068
vn 0.7071068 0 0.7071068
vn 0.7071068 0 0.7071068
vn 0.7071068 0 0.7071068
vn 0.7071068 0 0.7071068
vn -0.7071068 0 0.7071068
vn -0.7071068 0 0.7071068
vn -0.7071068 0 0.7071068
vn -0.7071068 0 0.7071068
vn -0.7071068 0 0.7071068
vn -0.7071068 0 0.7071068
vn -0.9418605 0 -0.3360041
vn -0.9418605 0 -0.3360041
vn -0.4284052 0 -0.9035867
vn -0.4284052 0 -0.9035867
vn 0.7071068 0 -0.7071067
vn 0.7071068 0 -0.7071067
vn 0.7071068 0 -0.7071068
vn 0.7071068 0 -0.7071068
vn 0.7071068 0 -0.7071068
vn 0.7071068 0 -0.7071068
vn -0.7071068 0 -0.7071068
vn -0.7071068 0 -0.7071068
vn -0.7071068 0 0.7071068
vn -0.7071068 0 0.7071068
vn 0.4320574 0 0.9018461
vn 0.4320574 0 0.9018461
vn 0.9018461 0 -0.4320574
vn 0.9018461 0 -0.4320574
vn -0.7071068 0 -0.7071068
vn -0.7071068 0 -0.7071068
g Text.003_0
f 3/3/3 2/2/2 1/1/1
f 4/4/4 3/3/3 1/1/1
f 5/5/5 3/3/3 4/4/4
f 6/6/6 4/4/4 1/1/1
f 7/7/7 3/3/3 5/5/5
f 7/7/7 5/5/5 8/8/8
f 8/8/8 6/6/6 1/1/1
f 7/7/7 8/8/8 1/1/1
f 9/9/9 7/7/7 1/1/1
f 10/10/10 9/9/9 1/1/1
f 10/10/10 1/1/1 11/11/11
f 10/10/10 11/11/11 12/12/12
f 10/10/10 12/12/12 13/13/13
f 13/13/13 12/12/12 14/14/14
f 15/15/15 13/13/13 14/14/14
f 18/18/18 17/17/17 16/16/16
f 19/19/19 18/18/18 16/16/16
f 20/20/20 19/19/19 16/16/16
f 20/20/20 16/16/16 21/21/21
f 20/20/20 22/22/22 19/19/19
f 22/22/22 23/23/23 19/19/19
f 24/24/24 20/20/20 21/21/21
f 25/25/25 24/24/24 21/21/21
f 26/26/26 20/20/20 24/24/24
f 26/26/26 24/24/24 27/27/27
f 30/30/30 29/29/29 28/28/28
f 30/30/30 28/28/28 31/31/31
f 31/31/31 28/28/28 32/32/32
f 30/30/30 31/31/31 33/33/33
f 32/32/32 28/28/28 34/34/34
f 35/35/35 32/32/32 34/34/34
f 30/30/30 33/33/33 35/35/35
f 30/30/30 35/35/35 34/34/34
f 30/30/30 34/34/34 36/36/36
f 30/30/30 36/36/36 37/37/37
f 38/38/38 30/30/30 37/37/37
f 41/41/41 40/40/40 39/39/39
f 42/42/42 41/41/41 39/39/39
f 45/45/45 44/44/44 43/43/43
f 45/45/45 43/43/43 46/46/46
f 49/49/49 48/48/48 47/47/47
f 49/49/49 47/47/47 50/50/50
f 49/49/49 50/50/50 51/51/51
f 52/52/52 49/49/49 51/51/51
f 50/50/50 53/53/53 51/51/51
f 50/50/50 54/54/54 53/53/53
f 52/52/52 51/51/51 55/55/55
f 52/52/52 55/55/55 56/56/56
f 55/55/55 51/51/51 57/57/57
f 58/58/58 55/55/55 57/57/57
f 61/61/61 60/60/60 59/59/59
f 62/62/62 61/61/61 59/59/59
f 63/63/63 61/61/61 62/62/62
f 64/64/64 63/63/63 62/62/62
f 65/65/65 63/63/63 64/64/64
f 66/66/66 65/65/65 64/64/64
f 67/67/67 65/65/65 66/66/66
f 68/68/68 67/67/67 66/66/66
f 69/69/69 67/67/67 68/68/68
f 70/70/70 69/69/69 68/68/68
f 71/71/71 69/69/69 70/70/70
f 72/72/72 71/71/71 70/70/70
f 73/73/73 71/71/71 72/72/72
f 74/74/74 73/73/73 72/72/72
f 75/75/75 73/73/73 74/74/74
f 76/76/76 75/75/75 74/74/74
f 77/77/77 75/75/75 76/76/76
f 78/78/78 77/77/77 76/76/76
f 79/79/79 77/77/77 78/78/78
f 80/80/80 79/79/79 78/78/78
f 81/81/81 79/79/79 80/80/80
f 82/82/82 81/81/81 80/80/80
f 83/83/83 81/81/81 82/82/82
f 84/84/84 83/83/83 82/82/82
f 87/87/87 86/86/86 85/85/85
f 88/88/88 87/87/87 85/85/85
f 89/89/89 87/87/87 88/88/88
f 90/90/90 89/89/89 88/88/88
f 91/91/91 89/89/89 90/90/90
f 92/92/92 91/91/91 90/90/90
f 93/93/93 91/91/91 92/92/92
f 94/94/94 93/93/93 92/92/92
f 95/95/95 93/93/93 94/94/94
f 96/96/96 95/95/95 94/94/94
f 97/97/97 95/95/95 96/96/96
f 98/98/98 97/97/97 96/96/96
f 99/99/99 97/97/97 98/98/98
f 100/100/100 99/99/99 98/98/98
f 101/101/101 99/99/99 100/100/100
f 102/102/102 101/101/101 100/100/100
f 103/103/103 101/101/101 102/102/102
f 104/104/104 103/103/103 102/102/102
f 105/105/105 103/103/103 104/104/104
f 106/106/106 105/105/105 104/104/104
f 107/107/107 105/105/105 106/106/106
f 108/108/108 107/107/107 106/106/106
f 111/111/111 110/110/110 109/109/109
f 112/112/112 111/111/111 109/109/109
f 113/113/113 111/111/111 112/112/112
f 114/114/114 113/113/113 112/112/112
f 115/115/115 113/113/113 114/114/114
f 116/116/116 115/115/115 114/114/114
f 117/117/117 115/115/115 116/116/116
f 118/118/118 117/117/117 116/116/116
